<svg width="20" height="18" viewBox="0 0 20 18" fill="none" xmlns="http://www.w3.org/2000/svg">
<path d="M13.366 0L16.577 5.70072H20V7.7506H18.833L18.076 17.0601C18.0552 17.3163 17.9413 17.555 17.7568 17.7291C17.5723 17.9032 17.3308 17.9999 17.08 18H2.92C2.66925 17.9999 2.4277 17.9032 2.24322 17.7291C2.05875 17.555 1.94481 17.3163 1.924 17.0601L1.166 7.7506H0V5.70072H3.422L6.634 0L8.366 1.02494L5.732 5.70072H14.267L11.634 1.02494L13.366 0ZM16.826 7.7506H3.173L3.84 15.9501H16.159L16.826 7.7506ZM11 9.80048V13.9002H9V9.80048H11ZM7 9.80048V13.9002H5V9.80048H7ZM15 9.80048V13.9002H13V9.80048H15Z" fill="white"/>
</svg>
