<svg width="30" height="30" viewBox="0 0 30 30" fill="none" xmlns="http://www.w3.org/2000/svg">
<g clip-path="url(#clip0_310_2)">
<path d="M9.14056 21.6798C8.81713 21.6798 8.55463 21.9423 8.55463 22.2657C8.55463 22.5892 8.81713 22.8517 9.14056 22.8517C9.464 22.8517 9.7265 22.5892 9.7265 22.2657C9.7265 21.9423 9.464 21.6798 9.14056 21.6798Z" fill="white"/>
<path d="M26.3755 11.133L29.8284 7.68008C29.9737 7.53483 30.0322 7.32413 29.9828 7.12479C29.9334 6.9254 29.7832 6.76649 29.5869 6.7059L21.1787 4.11079C20.4207 1.6744 18.1679 0.000198364 15.5858 0.000198364C13.1856 0.000198364 11.039 1.46299 10.1505 3.66963L0.411411 6.70643C0.215649 6.76749 0.0660008 6.92651 0.0169578 7.12567C-0.0320851 7.32477 0.0265086 7.53512 0.171528 7.68014L3.71522 11.2238L1.48022 14.9489C1.38875 15.1013 1.37147 15.287 1.43311 15.4537C1.49475 15.6204 1.62875 15.7501 1.79739 15.8063L5.03897 16.8867V25.8986C5.03897 26.1428 5.19049 26.3614 5.41919 26.4472C7.40124 27.1904 14.7656 29.9524 14.8051 29.9664C14.9214 30.0074 15.0524 30.0129 15.18 29.9716C15.1817 29.971 15.1835 29.9707 15.1852 29.9701L25.7321 26.4545C25.9713 26.3747 26.1327 26.1508 26.1327 25.8986V16.6455L29.5896 15.5591C29.7851 15.4977 29.9343 15.3387 29.9831 15.1397C30.0318 14.9407 29.9732 14.7307 29.8284 14.5858L26.3755 11.133ZM21.4452 5.85957C21.4452 5.71069 21.439 5.56215 21.4278 5.41409L28.3122 7.53899L25.3885 10.4626L20.6115 8.87041C21.1524 7.96625 21.4452 6.92293 21.4452 5.85957ZM11.1519 4.3345C11.8023 2.44297 13.5842 1.17207 15.5858 1.17207C17.7422 1.17207 19.6124 2.63059 20.1338 4.71887C20.2264 5.08995 20.2733 5.47373 20.2733 5.85957C20.2733 6.9479 19.9122 7.96795 19.2287 8.80989C18.3336 9.91391 17.0058 10.5471 15.5858 10.5471C14.0509 10.5471 12.6112 9.79368 11.7343 8.53122C11.1874 7.74571 10.8983 6.8218 10.8983 5.85957C10.8983 5.33627 10.9836 4.82317 11.1519 4.3345ZM1.68536 7.5367L9.78887 5.00991C9.74821 5.28987 9.72647 5.57346 9.72647 5.85952C9.72647 6.80293 9.94995 7.7167 10.3759 8.54118L4.61129 10.4626L1.68536 7.5367ZM2.86092 14.9255L4.71366 11.8375L14.1216 14.9735L12.269 18.0615C11.2644 17.7266 3.93354 15.283 2.86092 14.9255ZM14.414 28.5688L6.21085 25.4926V17.2774C12.6649 19.4174 12.3498 19.352 12.5295 19.352C12.7309 19.352 12.9238 19.2478 13.032 19.0675L14.414 16.7641V28.5688ZM14.9999 14.031L6.306 11.1331L11.04 9.55514C12.148 10.9173 13.816 11.719 15.5858 11.719C17.2231 11.719 18.7618 11.0452 19.8686 9.85807L23.6938 11.133L14.9999 14.031ZM24.9608 25.4763L15.5858 28.6013V16.3189L17.6631 18.9151C17.8142 19.104 18.0657 19.1805 18.2963 19.1081L24.9608 17.0138V25.4763ZM18.3276 17.8699L15.9824 14.9387L25.3885 11.8034L28.3161 14.731L18.3276 17.8699Z" fill="white"/>
<path d="M12.862 22.9803L11.5589 22.4917C11.2559 22.3781 10.9181 22.5316 10.8045 22.8346C10.6908 23.1376 10.8444 23.4753 11.1473 23.589L12.4505 24.0776C12.7541 24.1914 13.0914 24.0372 13.2049 23.7347C13.3185 23.4318 13.165 23.094 12.862 22.9803Z" fill="white"/>
<path d="M12.8619 25.4835L9.34629 24.1651C9.0433 24.0515 8.70557 24.205 8.5919 24.508C8.47822 24.811 8.6318 25.1488 8.93479 25.2624L12.4504 26.5808C12.5182 26.6062 12.5877 26.6183 12.6561 26.6183C12.8933 26.6183 13.1166 26.4731 13.2048 26.2379C13.3185 25.9348 13.165 25.5971 12.8619 25.4835Z" fill="white"/>
<path d="M18.9299 3.6873C18.7011 3.45843 18.3301 3.45849 18.1012 3.6873L14.9999 6.78867L14.2424 6.03111C14.0136 5.8023 13.6426 5.8023 13.4137 6.03111C13.1848 6.25992 13.1849 6.63093 13.4137 6.8598L14.5856 8.03162C14.8144 8.26042 15.1855 8.26042 15.4143 8.03162L18.9299 4.51599C19.1587 4.28718 19.1587 3.91617 18.9299 3.6873Z" fill="white"/>
</g>
<defs>
<clipPath id="clip0_310_2">
<rect width="30" height="30" fill="white"/>
</clipPath>
</defs>
</svg>
