<svg width="40" height="40" viewBox="0 0 40 40"  xmlns="http://www.w3.org/2000/svg">
<g clip-path="url(#clip0_22_13)">
<path d="M37.3575 19.3417H36.7624L33.8242 12.7505C33.2092 11.3712 31.8362 10.4767 30.3262 10.4721L27.1585 10.4617V9.5636C27.1585 7.88391 25.795 6.51764 24.119 6.51764H12.5473C11.3391 4.62067 9.2157 3.35938 6.80328 3.35938C3.05206 3.35938 0 6.40869 0 10.1569C0 13.1683 1.97021 15.7288 4.69025 16.619V32.6312C4.69025 33.0627 5.03998 33.4125 5.4715 33.4125H7.57446C8.11859 35.2957 9.8584 36.6769 11.9147 36.6769C13.9709 36.6769 15.7104 35.2957 16.2549 33.4125H27.3325C27.8766 35.2957 29.6164 36.6769 31.6727 36.6769C33.7289 36.6769 35.4684 35.2957 36.0129 33.4125H39.2188C39.6503 33.4125 40 33.0627 40 32.6312V21.9849C40 20.5276 38.8144 19.3417 37.3575 19.3417ZM38.4375 21.9849V27.644H27.1585V20.9042H37.3575C37.9529 20.9042 38.4375 21.3892 38.4375 21.9849ZM27.1664 31.85H16.4206C16.3519 30.8429 15.9518 29.9255 15.3287 29.2062H28.2587C27.6352 29.9255 27.2351 30.8429 27.1664 31.85ZM6.25275 27.6437V24.6295H25.596V27.6437H6.25275ZM30.321 12.0346C31.2173 12.0374 32.0322 12.5681 32.3972 13.3868L35.0516 19.3417H27.1585V12.0242L30.321 12.0346ZM1.5625 10.1569C1.5625 7.2702 3.91357 4.92188 6.80328 4.92188C9.69299 4.92188 12.0441 7.2702 12.0441 10.1569C12.0441 13.0435 9.69299 15.3918 6.80328 15.3918C3.91357 15.3918 1.5625 13.0435 1.5625 10.1569ZM6.80328 16.9543C10.5545 16.9543 13.6066 13.905 13.6066 10.1569C13.6066 9.43298 13.4927 8.73505 13.2819 8.08014H24.119C24.9335 8.08014 25.596 8.74573 25.596 9.5636V23.067H6.25275V16.9324C6.43433 16.947 6.61804 16.9543 6.80328 16.9543ZM6.25275 29.2062H8.50067C7.8772 29.9255 7.47711 30.8429 7.40845 31.85H6.25275V29.2062ZM11.9147 35.1144C10.2856 35.1144 8.96027 33.7894 8.96027 32.1603C8.96027 30.5316 10.2856 29.2065 11.9147 29.2065C13.5434 29.2065 14.8688 30.5316 14.8688 32.1603C14.8688 33.7894 13.5434 35.1144 11.9147 35.1144ZM31.6727 35.1144C30.0436 35.1144 28.7183 33.7894 28.7183 32.1603C28.7183 30.5316 30.0436 29.2065 31.6727 29.2065C33.3017 29.2065 34.6268 30.5316 34.6268 32.1603C34.6268 33.7894 33.3014 35.1144 31.6727 35.1144ZM38.4375 31.85H36.1786C36.1099 30.8429 35.7098 29.9255 35.0867 29.2062H38.4375V31.85Z"/>
<path d="M8.68469 10.9381H6.80328C6.37177 10.9381 6.02203 10.5884 6.02203 10.1569V7.76733C6.02203 7.33582 6.37177 6.98608 6.80328 6.98608C7.2348 6.98608 7.58453 7.33582 7.58453 7.76733V9.37561H8.68469C9.11621 9.37561 9.46594 9.72534 9.46594 10.1569C9.46594 10.5884 9.11621 10.9381 8.68469 10.9381Z"/>
<path d="M15.9101 20.9049C15.5829 20.9049 15.286 20.6928 15.1752 20.3861C15.0662 20.0843 15.1596 19.7349 15.4047 19.5273C15.6613 19.3104 16.037 19.2835 16.3224 19.4599C16.5964 19.6293 16.738 19.9607 16.6758 20.2759C16.6046 20.636 16.2772 20.9049 15.9101 20.9049Z"/>
<path d="M12.3776 20.9043H8.83698C8.40546 20.9043 8.05573 20.5546 8.05573 20.123C8.05573 19.6918 8.40546 19.3418 8.83698 19.3418H12.3776C12.8091 19.3418 13.1589 19.6918 13.1589 20.123C13.1589 20.5546 12.8091 20.9043 12.3776 20.9043Z"/>
<path d="M23.0118 20.9043H19.4711C19.0399 20.9043 18.6899 20.5546 18.6899 20.123C18.6899 19.6918 19.0399 19.3418 19.4711 19.3418H23.0118C23.4433 19.3418 23.793 19.6918 23.793 20.123C23.793 20.5546 23.4433 20.9043 23.0118 20.9043Z"/>
</g>
<defs>
<clipPath id="clip0_22_13">
<rect width="40" height="40"/>
</clipPath>
</defs>
</svg>
