<svg width="50" height="50" viewBox="0 0 50 50" xmlns="http://www.w3.org/2000/svg">
<g clip-path="url(#clip0_8_405)">
<path d="M38.4813 47.6124C38.3938 47.6124 38.3042 47.602 38.2167 47.577C37.6604 47.4311 37.3271 46.8624 37.475 46.3061L41.4042 31.3582L25 25.1228L8.59794 31.3582L12.5271 46.3061C12.6729 46.8624 12.3417 47.4332 11.7854 47.577C11.2271 47.727 10.6584 47.3916 10.5146 46.8353L6.34794 30.9811C6.21252 30.4666 6.48752 29.9332 6.98544 29.7436L24.6313 23.0353C24.8688 22.9436 25.1334 22.9436 25.3709 23.0353L43.0167 29.7436C43.5146 29.9332 43.7896 30.4666 43.6542 30.9811L39.4875 46.8353C39.3646 47.3041 38.9417 47.6124 38.4813 47.6124Z" />
<path d="M48.9583 49.9998C45.8646 49.9998 43.0187 48.5061 41.35 46.0019C41.1833 45.7519 40.7625 45.754 40.5958 46.0019C38.925 48.5061 36.0812 49.9998 32.9854 49.9998C29.8896 49.9998 27.0458 48.5061 25.375 46.0019C25.2104 45.754 24.7875 45.754 24.6229 46.0019C22.9542 48.5061 20.1083 49.9998 17.0146 49.9998C13.9208 49.9998 11.075 48.5061 9.40625 46.0019C9.23958 45.754 8.82083 45.7519 8.65208 46.0019C6.98125 48.5061 4.13542 49.9998 1.04167 49.9998C0.466667 49.9998 0 49.5332 0 48.9582C0 48.3832 0.466667 47.9165 1.04167 47.9165C3.4375 47.9165 5.63542 46.7686 6.91667 44.8457C7.83333 43.4707 10.2208 43.4727 11.1375 44.8457C12.4208 46.7686 14.6167 47.9165 17.0146 47.9165C19.4125 47.9165 21.6083 46.7686 22.8917 44.8457C23.8062 43.4727 26.1958 43.4727 27.1104 44.8457C28.3917 46.7686 30.5896 47.9165 32.9854 47.9165C35.3812 47.9165 37.5792 46.7686 38.8604 44.8457C39.775 43.4727 42.1646 43.4707 43.0812 44.8457C44.3646 46.7686 46.5625 47.9165 48.9583 47.9165C49.5333 47.9165 50 48.3832 50 48.9582C50 49.5332 49.5333 49.9998 48.9583 49.9998Z" />
<path d="M11.4584 30.1873C10.8834 30.1873 10.4167 29.7207 10.4167 29.1457V17.7082C10.4167 17.1332 10.8834 16.6665 11.4584 16.6665H25C25.575 16.6665 26.0417 17.1332 26.0417 17.7082V23.9998C26.0417 24.5748 25.575 25.0415 25 25.0415C24.425 25.0415 23.9584 24.5748 23.9584 23.9998V18.7498H12.5V29.1457C12.5 29.7228 12.0334 30.1873 11.4584 30.1873Z"/>
<path d="M38.5417 30.1873C37.9667 30.1873 37.5 29.7207 37.5 29.1457V18.7498H26.0417V23.9998C26.0417 24.5748 25.575 25.0415 25 25.0415C24.425 25.0415 23.9584 24.5748 23.9584 23.9998V17.7082C23.9584 17.1332 24.425 16.6665 25 16.6665H38.5417C39.1167 16.6665 39.5834 17.1332 39.5834 17.7082V29.1457C39.5834 29.7228 39.1167 30.1873 38.5417 30.1873Z" />
<path d="M32.2917 18.75C31.7167 18.75 31.25 18.2833 31.25 17.7083V8.33333H18.75V17.7083C18.75 18.2833 18.2834 18.75 17.7084 18.75C17.1334 18.75 16.6667 18.2833 16.6667 17.7083V7.29167C16.6667 6.71667 17.1334 6.25 17.7084 6.25H32.2917C32.8667 6.25 33.3334 6.71667 33.3334 7.29167V17.7083C33.3334 18.2833 32.8667 18.75 32.2917 18.75Z"/>
<path d="M25 8.33333C24.425 8.33333 23.9584 7.86667 23.9584 7.29167V1.04167C23.9584 0.466667 24.425 0 25 0C25.575 0 26.0417 0.466667 26.0417 1.04167V7.29167C26.0417 7.86667 25.575 8.33333 25 8.33333Z"/>
</g>
<defs>
<clipPath id="clip0_8_405">
<rect width="50" height="50"/>
</clipPath>
</defs>
</svg>
