<svg width="50" height="50" viewBox="0 0 50 50" xmlns="http://www.w3.org/2000/svg">
<g >
<path d="M0.0229187 37.3074C0.0618629 37.193 0.147068 37.1002 0.257877 37.0517L20.0196 28.4059L18.0822 27.2877C16.1887 26.1954 14.5224 24.7902 13.1248 23.1106L4.30687 23.3426C4.3031 23.3427 4.29934 23.3427 4.29557 23.3427C4.21381 23.3427 4.13366 23.3194 4.06459 23.2755L2.36386 22.1932C2.21659 22.0995 2.14053 21.9261 2.17129 21.7542C2.20206 21.5823 2.33374 21.4462 2.50447 21.4094L10.7879 19.6295L9.38647 17.2601C9.10214 16.7796 9.03469 16.2245 9.19649 15.697C9.31934 15.2965 9.56431 14.9485 9.88995 14.7004L7.29565 7.9932C7.23025 7.82419 7.27769 7.63237 7.41442 7.51339C7.55105 7.39451 7.74749 7.37397 7.90596 7.46175L12.7762 10.1674C12.8298 10.1971 12.8763 10.2379 12.9127 10.287L16.9887 15.7754L19.2436 12.3926C19.3731 12.1982 19.6339 12.1426 19.8314 12.2675L21.3006 13.1951C21.4386 13.2823 21.5154 13.4398 21.499 13.6021L20.9716 18.8377C23.2747 20.1637 26.0575 21.7671 28.9301 23.4252L38.9524 14.5506C39.0743 14.4428 39.2466 14.4129 39.3975 14.4733C40.6994 14.9941 41.3384 16.4322 40.8521 17.7475L38.9872 22.7918L42.0017 24.7962C42.3813 25.0274 42.6111 25.4669 42.6316 26.0093C42.6501 26.4977 42.5036 27.0382 42.219 27.5312C41.9343 28.0243 41.5395 28.4215 41.1072 28.6496C40.8454 28.7879 40.5787 28.8574 40.327 28.8574C40.108 28.8574 39.9004 28.8047 39.7173 28.6989C39.7069 28.6929 37.3991 27.0882 37.3991 27.0882L37.0231 28.1057C40.1572 29.9233 42.911 31.5283 44.6674 32.5677C46.6146 33.7201 48.1544 35.3644 49.1203 37.3225C49.4515 37.9938 49.7177 38.7006 49.9118 39.4233C50.1504 40.3139 49.8994 41.2302 49.2405 41.874C48.7603 42.3433 48.1406 42.5925 47.4972 42.5925C47.2585 42.5925 47.0166 42.5581 46.7774 42.4881C45.1816 42.0193 43.6013 41.4513 42.0806 40.8C40.5585 40.1483 39.0566 39.3967 37.6168 38.5656L29.7617 34.0296L22.8147 35.3468L24.1652 36.2226C24.5473 36.4531 24.7786 36.8942 24.7993 37.4387C24.8178 37.9271 24.6712 38.4675 24.3866 38.9606C23.9067 39.7918 23.1608 40.2877 22.4933 40.2877C22.2786 40.2877 22.072 40.2364 21.8849 40.1284C21.8744 40.1223 16.6785 36.5104 16.6785 36.5104L3.09497 39.086C2.91521 39.1201 2.73555 39.1367 2.55761 39.1367C1.52818 39.1367 0.564156 38.5812 0.0537949 37.6532C-0.00494385 37.5474 -0.0160255 37.4218 0.0229187 37.3074ZM3.71119 22.0305L4.41574 22.4787L15.0554 22.1988C14.3242 21.6354 13.0696 20.8841 11.8889 20.2732L3.71119 22.0305ZM12.2773 10.8746L8.52734 8.79144L11.2101 15.727L18.8981 19.7899L12.2773 10.8746ZM19.727 13.2192L17.5338 16.5095L17.9876 17.1205C18.6262 17.4879 19.3545 17.9069 20.154 18.3671L20.616 13.7808L19.727 13.2192ZM40.0937 27.9139L40.1576 27.9583C40.2896 28.0278 40.488 28.0033 40.7053 27.8886C40.9918 27.7375 41.2718 27.4503 41.4734 27.101C41.6751 26.7517 41.7838 26.3657 41.7715 26.0419C41.7621 25.7904 41.6809 25.6024 41.5491 25.5263C41.4982 25.497 41.4367 25.4824 41.3675 25.4824C41.2574 25.4824 41.1279 25.5193 40.9911 25.5915C40.7047 25.7426 40.4246 26.0298 40.223 26.3791C39.8479 27.0287 39.8504 27.6915 40.0937 27.9139ZM39.0713 27.2029C39.1026 26.801 39.2361 26.367 39.4776 25.9487C39.7517 25.474 40.1283 25.0897 40.5418 24.858L38.6806 23.6211L37.7072 26.2545L39.0713 27.2029ZM40.0451 17.4489C40.3381 16.6562 40.0165 15.7964 39.3088 15.3847L29.7162 23.8789C31.9267 25.1552 34.1685 26.4514 36.2672 27.6678L40.0451 17.4489ZM48.464 41.4077C48.5248 41.3625 48.5832 41.3129 48.6387 41.2587C49.0713 40.836 49.2364 40.2347 49.0811 39.6499C48.9391 39.5532 48.7731 39.5001 48.603 39.5001C48.1095 39.5001 47.7079 39.9307 47.7079 40.4601C47.708 40.9356 48.0375 41.3354 48.464 41.4077ZM38.0468 37.8203C39.457 38.6343 40.9281 39.3705 42.4192 40.0088C43.9086 40.6469 45.4565 41.2033 47.0194 41.6623C47.1274 41.6938 47.2362 41.7143 47.3445 41.7241C47.0375 41.3952 46.8474 40.9485 46.8474 40.46C46.8474 39.4561 47.635 38.6393 48.6031 38.6393C48.6549 38.6393 48.7065 38.6418 48.7578 38.6464C48.6364 38.3255 48.4998 38.0103 48.3482 37.7032C48.3235 37.653 48.2968 37.604 48.2713 37.5543C47.8043 38.1121 46.8947 38.393 45.5599 38.393C45.2191 38.393 44.8508 38.3747 44.455 38.3381C44.2183 38.3162 44.0443 38.1066 44.0662 37.8698C44.0882 37.633 44.2983 37.4614 44.5344 37.481C46.6735 37.6796 47.3743 37.2729 47.6017 37.0135C47.7296 36.8676 47.7448 36.7222 47.7415 36.6426C46.8632 35.299 45.667 34.1593 44.229 33.3082C39.2472 30.3597 26.233 22.8583 19.2755 18.8541L20.7208 20.8003C20.8406 20.9617 20.8329 21.1846 20.702 21.3371C20.6179 21.435 20.4976 21.4873 20.3751 21.4873C20.3068 21.4873 20.238 21.471 20.1743 21.4374L10.6656 16.4125C10.5738 16.3641 10.5027 16.2842 10.4654 16.1874L10.2252 15.5663C10.1339 15.6781 10.0629 15.8074 10.0195 15.9492C9.92954 16.2423 9.96795 16.5522 10.1274 16.8219L11.6751 19.4386L11.8586 19.3993C11.9554 19.3786 12.0564 19.3918 12.1447 19.4368C12.7724 19.7573 15.9294 21.4073 16.431 22.4107C16.4969 22.5423 16.4909 22.6984 16.4152 22.8245C16.3395 22.9507 16.2046 23.0295 16.0575 23.0333L14.237 23.0812C15.4723 24.4536 16.9068 25.6158 18.5125 26.5422L20.999 27.9774L21.2852 27.8522C21.3804 27.8105 21.4874 27.8048 21.5866 27.8359C21.8623 27.9225 28.3726 29.9907 31.3518 33.0484C31.4623 33.1619 31.5016 33.3269 31.454 33.4781C31.4063 33.6292 31.2794 33.7418 31.1237 33.7714L31.0571 33.784L38.0468 37.8203ZM22.2625 39.345L22.3222 39.3866C22.6204 39.5474 23.2429 39.2196 23.6408 38.5305C23.8426 38.1811 23.9511 37.7951 23.9388 37.4714C23.9294 37.2198 23.8481 37.0319 23.7164 36.9557C23.6647 36.926 23.603 36.9114 23.5339 36.9114C23.208 36.9114 22.7214 37.2353 22.3904 37.8085C22.0143 38.4597 22.0176 39.1241 22.2625 39.345ZM21.2386 38.6332C21.2697 38.2311 21.4033 37.7969 21.645 37.3782C21.9264 36.8906 22.2995 36.5192 22.6946 36.2947L21.5834 35.5804L17.8626 36.2859L21.2386 38.6332ZM2.93425 38.2406L30.1285 33.0842C27.3535 30.7204 22.4073 29.0133 21.48 28.7065L1.08678 37.6285C1.54733 38.1311 2.24079 38.3723 2.93425 38.2406Z" />
</g>
<defs>
<clipPath id="clip0_18_93">
<rect width="50" height="50"  transform="matrix(-1 0 0 1 50 0)"/>
</clipPath>
</defs>
</svg>
