<svg width="50" height="50" viewBox="0 0 50 50"  xmlns="http://www.w3.org/2000/svg">
<path d="M21.6938 34.8856C21.8854 35.6784 22.5885 36.2322 23.4038 36.2322C23.5427 36.2322 23.682 36.2156 23.8175 36.1828L48.2148 30.2892C49.1579 30.0615 49.7399 29.1088 49.5122 28.1655L45.0417 9.65888C44.8503 8.86597 44.1471 8.31226 43.3316 8.31226C43.1927 8.31226 43.0535 8.32888 42.9181 8.36162L18.5205 14.2551C18.0637 14.3655 17.6771 14.6472 17.4321 15.0482C17.1871 15.4494 17.113 15.9219 17.2233 16.3787L21.6938 34.8856ZM33.293 13.0848L35.8821 23.8032L31.5406 24.852L28.9514 14.1336L33.293 13.0848ZM26.6854 14.681L29.5483 26.5323C29.6773 27.0662 30.1546 27.4246 30.6804 27.4245C30.771 27.4245 30.863 27.4139 30.9551 27.3917L37.5625 25.7955C38.1883 25.6444 38.573 25.0145 38.4218 24.3888L35.5589 12.5373L42.9098 10.7615L47.1121 28.1571L23.8256 33.7823L19.6235 16.3867L26.6854 14.681Z" />
<path d="M49.9671 35.2463C49.8159 34.6205 49.186 34.2361 48.5604 34.3869L24.8237 40.1209C23.8131 37.8478 21.5575 36.3398 18.9962 36.3398C18.8809 36.3398 18.7655 36.3438 18.6502 36.3501L10.2978 1.7743C10.1466 1.14852 9.5169 0.763668 8.89112 0.914994L0.892245 2.84716C0.266468 2.99838 -0.118282 3.62811 0.0329422 4.25389C0.184167 4.87966 0.813998 5.26411 1.43967 5.11329L8.30558 3.45479L16.3842 36.8974C15.2116 37.4188 14.2242 38.2802 13.5409 39.3988C12.6514 40.8549 12.3821 42.5703 12.7828 44.2288C13.4782 47.1074 16.0299 49.1179 18.988 49.1179C19.4921 49.1179 19.9981 49.0574 20.492 48.9381C23.5288 48.2045 25.532 45.4008 25.3695 42.3874L49.108 36.6531C49.7335 36.5018 50.1183 35.872 49.9671 35.2463ZM19.9444 46.672C19.6296 46.7481 19.3077 46.7866 18.9877 46.7866C17.11 46.7866 15.4903 45.5096 15.0485 43.6813C14.7941 42.628 14.965 41.5387 15.5299 40.614C16.0947 39.6893 16.9859 39.0399 18.0392 38.7855C18.3541 38.7095 18.676 38.6709 18.996 38.6709C20.8735 38.6709 22.4932 39.9478 22.9349 41.7762C23.4602 43.9505 22.1187 46.1467 19.9444 46.672Z" />
</svg>
