<svg width="50" height="50" viewBox="0 0 50 50" xmlns="http://www.w3.org/2000/svg">
<path d="M32.8179 3.90625C32.2788 3.90625 31.8413 4.34375 31.8413 4.88281C31.8413 5.42188 32.2788 5.85938 32.8179 5.85938C33.3569 5.85938 33.7944 5.42188 33.7944 4.88281C33.7944 4.34375 33.3569 3.90625 32.8179 3.90625Z"/>
<path d="M17.1929 3.90625C16.6538 3.90625 16.2163 4.34375 16.2163 4.88281C16.2163 5.42188 16.6538 5.85938 17.1929 5.85938C17.7319 5.85938 18.1694 5.42188 18.1694 4.88281C18.1694 4.34375 17.7319 3.90625 17.1929 3.90625Z"/>
<path d="M45.3162 48.3481L38.8541 41.5971C41.4647 41.5035 43.5601 39.3519 43.5601 36.7188V7.74121C43.5601 6.16338 43.0086 4.62256 42.007 3.40254C41.0048 2.18281 39.6007 1.34229 38.0539 1.03633C34.5879 0.348633 31.0393 0 27.5064 0H22.3473C18.9872 0 15.4873 0.321875 11.9457 1.02969C8.76162 1.6667 6.45068 4.48613 6.45068 7.7334V36.7188C6.45068 39.374 8.58154 41.5396 11.2229 41.5987L4.68779 48.3439C4.41484 48.6256 4.33691 49.0432 4.48994 49.4042C4.64277 49.7653 4.99697 50 5.38916 50H12.3716C12.6847 50 12.9787 49.8499 13.1624 49.5964L16.1247 45.5078H33.9729L36.9353 49.5965C37.1189 49.8499 37.4131 50 37.7261 50H44.6108C45.002 50 45.3553 49.7666 45.5089 49.407C45.6625 49.0473 45.5867 48.6308 45.3162 48.3481ZM8.40381 36.7188V7.7334C8.40381 5.41377 10.0545 3.3999 12.3286 2.94482C15.5164 2.30771 18.8849 1.95312 22.3472 1.95312H27.5063C30.9119 1.95312 34.3326 2.28916 37.6741 2.95205C38.779 3.1707 39.7819 3.77109 40.4976 4.64209C41.2129 5.51348 41.6068 6.61406 41.6068 7.74111V36.7188C41.6068 38.3342 40.2926 39.6484 38.6771 39.6484H11.3334C9.71807 39.6484 8.40381 38.3342 8.40381 36.7188ZM11.8732 48.0469H7.69502L13.9395 41.6016H16.5432L11.8732 48.0469ZM17.5398 43.5547L18.955 41.6016H31.1428L32.5578 43.5547H17.5398ZM38.2244 48.0469L33.5547 41.6016H36.1548L42.3242 48.0469H38.2244Z"/>
<path d="M38.6772 7.8125H11.3335C10.7942 7.8125 10.3569 8.2498 10.3569 8.78906V25C10.3569 25.5393 10.7942 25.9766 11.3335 25.9766H38.6772C39.2165 25.9766 39.6538 25.5393 39.6538 25V8.78906C39.6538 8.2498 39.2165 7.8125 38.6772 7.8125ZM24.0288 24.0234H12.3101V9.76562H24.0288V24.0234ZM37.7007 24.0234H25.9819V9.76562H37.7007V24.0234Z" />
<path d="M28.9116 3.90625H21.0991C20.5599 3.90625 20.1226 4.34355 20.1226 4.88281C20.1226 5.42207 20.5599 5.85938 21.0991 5.85938H28.9116C29.4509 5.85938 29.8882 5.42207 29.8882 4.88281C29.8882 4.34355 29.4509 3.90625 28.9116 3.90625Z"/>
<path d="M35.7476 28.9062C33.5937 28.9062 31.8413 30.6586 31.8413 32.8125C31.8413 34.9664 33.5937 36.7188 35.7476 36.7188C37.9015 36.7188 39.6538 34.9664 39.6538 32.8125C39.6538 30.6586 37.9015 28.9062 35.7476 28.9062ZM35.7476 34.7656C34.6706 34.7656 33.7944 33.8895 33.7944 32.8125C33.7944 31.7355 34.6706 30.8594 35.7476 30.8594C36.8245 30.8594 37.7007 31.7355 37.7007 32.8125C37.7007 33.8895 36.8245 34.7656 35.7476 34.7656Z"/>
<path d="M14.2632 28.9062C12.1093 28.9062 10.3569 30.6586 10.3569 32.8125C10.3569 34.9664 12.1094 36.7188 14.2632 36.7188C16.4171 36.7188 18.1694 34.9664 18.1694 32.8125C18.1694 30.6586 16.4171 28.9062 14.2632 28.9062ZM14.2632 34.7656C13.1862 34.7656 12.3101 33.8895 12.3101 32.8125C12.3101 31.7355 13.1862 30.8594 14.2632 30.8594C15.3401 30.8594 16.2163 31.7355 16.2163 32.8125C16.2163 33.8895 15.3401 34.7656 14.2632 34.7656Z"/>
<path d="M28.9116 29.8828H21.0991C20.5599 29.8828 20.1226 30.3201 20.1226 30.8594C20.1226 31.3986 20.5599 31.8359 21.0991 31.8359H28.9116C29.4509 31.8359 29.8882 31.3986 29.8882 30.8594C29.8882 30.3201 29.451 29.8828 28.9116 29.8828Z"/>
<path d="M28.9116 33.7891H21.0991C20.5599 33.7891 20.1226 34.2264 20.1226 34.7656C20.1226 35.3049 20.5599 35.7422 21.0991 35.7422H28.9116C29.4509 35.7422 29.8882 35.3049 29.8882 34.7656C29.8882 34.2264 29.451 33.7891 28.9116 33.7891Z"/>
</svg>
