<svg width="50" height="50" viewBox="0 0 50 50"  xmlns="http://www.w3.org/2000/svg">
<g clip-path="url(#clip0_18_110)">
<path d="M0 9.33891C0 9.1884 0.0803146 9.04916 0.210804 8.9738L9.13282 3.82262C9.2632 3.74726 9.42384 3.74736 9.55422 3.82241L43.2214 23.2321C43.3519 23.3074 43.4323 23.4466 43.4324 23.5973V23.5974V26.3678L48.7995 29.4262C48.9108 29.4897 48.9855 29.5996 49.0061 29.7236L49.9794 35.5862C49.9924 35.627 50 35.6698 50 35.7137V40.6619C50 40.8125 49.9196 40.9517 49.7892 41.027L40.8678 46.1772C40.8026 46.2149 40.7297 46.2337 40.657 46.2337C40.5843 46.2337 40.5114 46.2149 40.4462 46.1772C40.4454 46.1767 36.5381 43.9571 36.5381 43.9571C36.4658 44.4932 36.217 44.9362 35.7951 45.1798C35.5767 45.3059 35.3353 45.3658 35.0837 45.3658C34.2834 45.3658 33.3809 44.7592 32.7963 43.7467C32.4474 43.1423 32.2677 42.4815 32.2902 41.8862C32.2949 41.763 32.3107 41.6469 32.3319 41.5346L25.1658 37.3977C25.0819 37.9029 24.8352 38.318 24.4314 38.5511C24.213 38.6772 23.9717 38.7371 23.7201 38.7371C22.9197 38.737 22.0173 38.1305 21.4326 37.118C21.1939 36.7046 21.0366 36.2651 20.967 35.8379C20.8435 36.0377 20.6812 36.2047 20.4764 36.323C20.258 36.4491 20.0167 36.5091 19.7651 36.5091C18.9648 36.5091 18.0623 35.9024 17.4777 34.8899C17.1287 34.2856 16.949 33.6248 16.9715 33.0295C16.9761 32.911 16.991 32.7993 17.0107 32.6909L16.5492 32.4246C16.4187 32.3492 16.3384 32.2101 16.3384 32.0593V29.3005L13.7385 27.8018C13.7385 27.8018 11.3164 29.1923 11.3083 29.197C11.2434 29.2342 11.171 29.2527 11.0987 29.2527C11.025 29.2527 10.9513 29.2334 10.8855 29.1948L10.0785 28.7219C9.99258 29.2409 9.74025 29.6436 9.347 29.8708C9.13082 29.9957 8.89019 30.0578 8.63543 30.0578C8.33915 30.0578 8.024 29.9737 7.70653 29.8061C7.17963 29.5278 6.69731 29.0418 6.34843 28.4375C6.10358 28.0135 5.94917 27.5771 5.88066 27.1619C5.75608 27.3619 5.59355 27.5263 5.39213 27.6426C5.17595 27.7675 4.93532 27.8296 4.68056 27.8296C4.38428 27.8296 4.06913 27.7455 3.75166 27.5779C3.22476 27.2996 2.74234 26.8136 2.39346 26.2093C1.95583 25.4513 1.80532 24.6534 1.92463 24.0091L1.46508 23.7439C1.33459 23.6685 1.25428 23.5294 1.25428 23.3787V20.6045L0.211227 20.0032C0.0806351 19.9278 0.000213623 19.7886 0.000213623 19.6379L0 9.33891ZM9.34373 4.67448L1.26514 9.33859L34.0894 28.261L42.1672 23.5976L9.34373 4.67448ZM42.5892 24.3276L34.5112 28.9912V31.0357L42.5892 26.3714V24.3276ZM43.0139 27.0999L34.9387 31.7625L39.668 34.4569L47.7434 29.795L43.0139 27.0999ZM43.316 43.7905L46.9194 41.7101V40.1341L43.316 42.2144V43.7905ZM42.6836 41.606L47.1302 39.0389C47.2607 38.9636 47.4215 38.9636 47.5518 39.0389C47.6823 39.1142 47.7626 39.2534 47.7626 39.404V39.4214L49.1568 38.583V36.4439L41.0786 41.1078L41.0787 43.3348L42.4728 42.4962V41.9711C42.4728 41.8206 42.5532 41.6812 42.6836 41.606ZM40.2942 36.1816L48.4429 31.4772L48.2745 30.4619L40.1316 35.1629L40.2942 36.1816ZM40.4366 37.073L40.9384 40.2151L49.11 35.4973L48.5904 32.3656L40.4366 37.073ZM39.285 35.2092L38.1453 34.5599V38.9301L40.0555 40.0331L39.285 35.2092ZM49.1568 39.567L47.7626 40.4053V41.2234L49.1568 40.4185V39.567ZM42.4728 44.2774V43.4803L41.0787 44.3188V45.0821L42.4728 44.2774ZM36.0532 41.8663C36.0533 41.8663 36.0533 41.8663 36.0532 41.8663C36.2618 42.2276 36.4031 42.5976 36.4833 42.9563L40.2353 45.0875V41.1105L37.5128 39.5386C37.3823 39.4634 37.302 39.3241 37.302 39.1735V34.0795L34.5112 32.4895V40.4107C34.5723 40.4369 34.6335 40.4654 34.695 40.4978C35.2219 40.7759 35.7043 41.262 36.0532 41.8663ZM33.5266 43.3251C34.0858 44.2933 34.9488 44.695 35.3734 44.4497C35.7982 44.2044 35.882 43.2562 35.323 42.2879C35.0563 41.8261 34.6839 41.4454 34.3013 41.2435C34.1132 41.1442 33.7559 41.002 33.476 41.1633C33.1962 41.3249 33.1409 41.7056 33.1328 41.9181C33.1166 42.3505 33.26 42.8633 33.5266 43.3251ZM33.0545 40.4332C33.2427 40.3245 33.4497 40.2641 33.6681 40.2501V39.2906L29.1872 36.7075V38.7455L32.6762 40.7597C32.7828 40.6293 32.9077 40.5178 33.0545 40.4332ZM22.1631 36.6963C22.7222 37.6645 23.5851 38.066 24.0099 37.8209C24.4347 37.5756 24.5185 36.6274 23.9594 35.6591C23.6929 35.1973 23.3205 34.8166 22.9379 34.6147C22.8112 34.5478 22.6079 34.4614 22.4031 34.4614C22.3038 34.4614 22.2041 34.4818 22.1127 34.5345C21.8328 34.6961 21.7775 35.0768 21.7695 35.2893C21.753 35.7217 21.8964 36.2346 22.1631 36.6963ZM18.2081 34.4682C18.7672 35.4364 19.6302 35.8379 20.0549 35.5928C20.4798 35.3475 20.5635 34.3994 20.0044 33.431C19.7379 32.9693 19.3655 32.5886 18.9829 32.3866C18.8562 32.3197 18.6529 32.2334 18.4481 32.2334C18.3488 32.2334 18.2491 32.2537 18.1577 32.3064C17.8779 32.468 17.8225 32.8487 17.8145 33.0612C17.798 33.4936 17.9414 34.0064 18.2081 34.4682ZM17.1817 31.8158L17.3495 31.9126C17.4576 31.7779 17.5854 31.6631 17.7359 31.5762C18.2035 31.306 18.786 31.3291 19.3765 31.6408C19.9034 31.919 20.3857 32.4051 20.7347 33.0093C20.9467 33.3765 21.0891 33.7527 21.1686 34.1169L21.2741 34.1778C21.3878 34.0261 21.5264 33.8992 21.6909 33.8043C22.1584 33.5342 22.741 33.5572 23.3314 33.8689C23.8583 34.1471 24.3407 34.6331 24.6895 35.2374C24.9136 35.6255 25.0604 36.0238 25.1367 36.407L28.344 38.2586V36.2212L17.1818 29.7864V31.8158H17.1817ZM12.8949 27.3152L11.5205 26.5229V28.1088L12.8949 27.3152ZM7.07866 28.0159C7.34521 28.4777 7.7176 28.8584 8.1002 29.0604C8.28835 29.1596 8.64555 29.3019 8.9255 29.1406C9.20534 28.979 9.26067 28.5983 9.26868 28.3858C9.28513 27.9533 9.14157 27.4405 8.87501 26.9788C8.31586 26.0106 7.45304 25.609 7.02817 25.8541C6.60329 26.0994 6.51961 27.0476 7.07866 28.0159ZM3.12357 25.7877C3.39024 26.2495 3.76262 26.6302 4.14523 26.8322C4.33337 26.9314 4.69057 27.0737 4.97052 26.9124C5.25036 26.7508 5.30559 26.3701 5.31371 26.1576C5.33004 25.7251 5.18659 25.2124 4.92003 24.7506C4.36088 23.7824 3.49806 23.3806 3.07319 23.626C2.64842 23.8713 2.56463 24.8195 3.12357 25.7877ZM2.09728 23.1353L2.26539 23.2323C2.37248 23.0984 2.49991 22.9833 2.65148 22.8957C3.56467 22.3685 4.88177 22.9983 5.65015 24.329C5.85663 24.6867 6.00219 25.0642 6.08324 25.4361L6.18938 25.4974C6.30195 25.3467 6.44055 25.2196 6.60635 25.1239C7.51955 24.5967 8.83664 25.2265 9.60502 26.5572C9.82373 26.9359 9.97582 27.3367 10.0534 27.7299L10.6771 28.0953V26.0368L2.09717 21.0906V23.1353H2.09728ZM33.6681 38.3172V28.9913L0.843212 10.0686V19.3943L33.6681 38.3172Z" />
</g>
<defs>
<clipPath id="clip0_18_110">
<rect width="50" height="50"  transform="matrix(-1 0 0 1 50 0)"/>
</clipPath>
</defs>
</svg>
