<svg width="50" height="50" viewBox="0 0 50 50" xmlns="http://www.w3.org/2000/svg">
<g clip-path="url(#clip0_8_575)">
<path d="M49.8634 19.3423L45.26 10.6693C45.1038 10.3751 44.8377 10.1727 44.5362 10.0896C44.5341 10.0891 44.5329 10.0884 44.5308 10.0877L25.3534 4.91127C25.154 4.8576 24.9439 4.85729 24.7444 4.91086L5.47057 10.0873C5.46844 10.0879 5.46701 10.0887 5.46477 10.0893C5.16273 10.1722 4.89624 10.3748 4.73992 10.6693L0.136661 19.3423C-0.0133395 19.625 -0.0411399 19.9568 0.0596748 20.2604C0.16049 20.5641 0.381264 20.8134 0.670571 20.9501L4.67577 22.8433V34.691C4.67577 35.1405 4.933 35.5504 5.33788 35.7456L24.5392 45.0126C24.7005 45.0905 24.8746 45.129 25.0481 45.129C25.2203 45.129 25.3915 45.0894 25.5498 45.0142C25.5524 45.0136 25.5548 45.0137 25.5571 45.0125L44.7585 35.7455C45.1634 35.5502 45.4206 35.1404 45.4206 34.6909V22.8444C45.4206 22.8291 45.4189 22.8141 45.4184 22.799L49.3296 20.9502C49.6189 20.8134 49.8396 20.5642 49.9405 20.2606C50.0412 19.9567 50.0134 19.6251 49.8634 19.3423ZM25.0474 7.25465L40.3821 11.3939L25 17.0947L9.62526 11.3967L25.0474 7.25465ZM6.32831 12.6726L23.4253 19.0089L19.6598 27.3359L2.78065 19.3569L6.32831 12.6726ZM7.01793 33.9559V23.9506L19.7355 29.9623C19.8936 30.037 20.0647 30.0747 20.2361 30.0747C20.3726 30.0747 20.5095 30.0509 20.6401 30.0028C20.9349 29.8945 21.1737 29.6723 21.3032 29.3861L23.8771 23.6941V42.0925L7.01793 33.9559ZM43.0783 33.9559L26.2192 42.0925V23.907L28.6969 29.3861C28.8263 29.6723 29.0651 29.8944 29.3599 30.0028C29.4905 30.0509 29.6274 30.0747 29.764 30.0747C29.9355 30.0747 30.1064 30.0371 30.2645 29.9623L43.0783 23.9051V33.9559ZM30.3402 27.3358L26.5747 19.0088L43.6716 12.6725L47.2194 19.3568L30.3402 27.3358Z"/>
</g>
<defs>
<clipPath id="clip0_8_575">
<rect width="50" height="50"/>
</clipPath>
</defs>
</svg>
