<svg width="40" height="40" viewBox="0 0 40 40"  xmlns="http://www.w3.org/2000/svg">
<g clip-path="url(#clip0_22_19)">
<path d="M36.4944 40.0001H25.1251C24.6936 40.0001 24.3439 39.6503 24.3439 39.2188C24.3439 38.7873 24.6936 38.4376 25.1251 38.4376H36.4944C37.5659 38.4376 38.4375 37.566 38.4375 36.4945C38.4375 35.4227 37.5659 34.5511 36.4944 34.5511H23.028C20.7138 34.5511 18.8315 32.6685 18.8315 30.3547C18.8315 28.0408 20.7138 26.1582 23.028 26.1582H32.6767C34.1629 26.1582 35.372 24.9491 35.372 23.4629C35.372 21.9767 34.1629 20.7676 32.6767 20.7676H22.0358C21.6043 20.7676 21.2546 20.4178 21.2546 19.9863C21.2546 19.5551 21.6043 19.2051 22.0358 19.2051H32.6767C35.0244 19.2051 36.9345 21.1152 36.9345 23.4629C36.9345 25.8106 35.0244 27.7207 32.6767 27.7207H23.028C21.5753 27.7207 20.394 28.9023 20.394 30.3547C20.394 31.807 21.5753 32.9886 23.028 32.9886H36.4944C38.4274 32.9886 40 34.5612 40 36.4945C40 38.4275 38.4274 40.0001 36.4944 40.0001Z" />
<path d="M18.0588 38.4374H10.7339C11.337 37.9396 12.0242 37.3229 12.7142 36.6008C15.3348 33.8585 16.72 30.9035 16.72 28.0553C16.72 23.4456 12.9697 19.6953 8.35999 19.6953C3.75031 19.6953 0 23.4456 0 28.0553C0 30.8669 1.38458 33.81 4.00421 36.5663C5.90149 38.5628 7.77832 39.7747 7.93488 39.8741C8.03894 39.9416 8.15979 39.9849 8.28979 39.9965C8.29102 39.9968 8.29224 39.9968 8.29346 39.9968C8.29712 39.9971 8.30048 39.9974 8.30414 39.9977C8.3075 39.998 8.31085 39.998 8.31421 39.9984C8.31726 39.9987 8.32062 39.9987 8.32397 39.999C8.32825 39.999 8.33252 39.9993 8.3371 39.9993C8.33862 39.9993 8.34045 39.9993 8.34229 39.9996H8.35999H18.0588C18.4903 39.9996 18.84 39.6498 18.84 39.2183C18.84 38.7871 18.4903 38.4374 18.0588 38.4374ZM1.5625 28.0553C1.5625 24.3071 4.61182 21.2578 8.35999 21.2578C12.1082 21.2578 15.1575 24.3071 15.1575 28.0553C15.1575 33.16 9.89807 37.2045 8.36334 38.2756C6.82922 37.1892 1.5625 33.0916 1.5625 28.0553Z" />
<path d="M8.35999 31.8801C6.19537 31.8801 4.4342 30.1192 4.4342 27.9546C4.4342 25.79 6.19537 24.0288 8.35999 24.0288C10.5246 24.0288 12.2858 25.79 12.2858 27.9546C12.2858 30.1192 10.5246 31.8801 8.35999 31.8801ZM8.35999 25.5913C7.05688 25.5913 5.9967 26.6515 5.9967 27.9546C5.9967 29.2577 7.05688 30.3176 8.35999 30.3176C9.66309 30.3176 10.7233 29.2577 10.7233 27.9546C10.7233 26.6515 9.66309 25.5913 8.35999 25.5913Z" />
<path d="M37.7551 0H23.8672C22.6294 0 21.6226 1.00708 21.6226 2.24487V14.5786C21.6226 15.8163 22.6294 16.8234 23.8672 16.8234H37.7551C38.9929 16.8234 40 15.8163 40 14.5786V2.24487C40 1.00708 38.9929 0 37.7551 0ZM32.7771 1.5625V6.99066L31.1777 6.14105C31.0629 6.08032 30.9372 6.0498 30.8112 6.0498C30.6854 6.0498 30.5594 6.08032 30.4449 6.14105L28.8452 6.99066V1.5625H32.7771ZM38.4375 14.5786C38.4375 14.9548 38.1314 15.2609 37.7551 15.2609H23.8672C23.4909 15.2609 23.1851 14.9548 23.1851 14.5786V2.24487C23.1851 1.86859 23.4912 1.5625 23.8672 1.5625H27.2827V8.2901C27.2827 8.56415 27.4265 8.81836 27.6614 8.95966C27.8964 9.10095 28.1885 9.10858 28.4305 8.9801L30.8115 7.71576L33.1921 8.9801C33.3069 9.04114 33.4329 9.07135 33.5587 9.07135C33.6981 9.07135 33.8376 9.03412 33.9612 8.95966C34.1962 8.81836 34.3399 8.56415 34.3399 8.2901V1.5625H37.7554C38.1317 1.5625 38.4378 1.86859 38.4378 2.24487V14.5786H38.4375Z" />
<path d="M21.5771 40.0001C21.2469 40.0001 20.9457 39.7831 20.8386 39.4719C20.7333 39.1655 20.8343 38.8133 21.0876 38.6107C21.3367 38.4114 21.6913 38.3836 21.9678 38.5429C22.2525 38.7071 22.4069 39.0422 22.3443 39.3654C22.2742 39.7285 21.9479 40.0001 21.5771 40.0001Z"/>
</g>
<defs>
<clipPath id="clip0_22_19">
<rect width="40" height="40"/>
</clipPath>
</defs>
</svg>
