<svg width="60" height="60" viewBox="0 0 60 60" fill="none" xmlns="http://www.w3.org/2000/svg">
<path d="M22.1032 4.84324L24.8436 10.8327C25.559 12.3967 25.7582 14.1415 25.4133 15.8224C25.0684 17.5032 24.1967 19.0358 22.9205 20.2051L18.3815 24.3643C18.2489 24.4858 18.1648 24.6499 18.1446 24.8271C18.0109 26.0124 18.8281 28.3204 20.7118 31.5301C22.082 33.862 23.3246 35.5012 24.3788 36.4179C25.114 37.0598 25.5181 37.1971 25.6913 37.1494L31.7979 35.3131C33.466 34.8111 35.2521 34.8349 36.9058 35.3811C38.5594 35.9272 39.9976 36.9684 41.0186 38.3586L44.9074 43.6613C46.0909 45.2739 46.6388 47.2538 46.4494 49.2333C46.26 51.2129 45.3461 53.0576 43.8775 54.4251L41.1857 56.9331C39.7571 58.2627 38.0024 59.206 36.0926 59.6712C34.1828 60.1364 32.183 60.1075 30.288 59.5875C21.921 57.2914 14.4198 50.3525 7.6995 38.914C0.970053 27.4605 -1.39057 17.5955 0.784727 9.31594C1.24659 7.56026 2.13544 5.9411 3.37487 4.59769C4.61429 3.25427 6.16718 2.22682 7.90001 1.60367L8.52587 1.39765L12.0714 0.349644C14.0136 -0.225943 16.1026 -0.0873836 17.9485 0.739467C19.7945 1.56632 21.2712 3.02497 22.1032 4.84324ZM13.3869 4.63424L9.84138 5.68822L9.36135 5.84945C8.34604 6.23366 7.4387 6.85049 6.71477 7.64868C5.99084 8.44686 5.47122 9.40333 5.19912 10.4386C3.36713 17.3984 5.4604 26.1438 11.646 36.6746C17.8225 47.1905 24.473 53.3412 31.5154 55.276C32.652 55.5872 33.8513 55.6038 34.9965 55.3244C36.1416 55.045 37.1937 54.4791 38.0504 53.6816L40.7452 51.1736C41.413 50.5519 41.8285 49.7131 41.9146 48.8131C42.0006 47.9131 41.7513 47.0129 41.213 46.2799L37.3242 40.9801C36.8602 40.3478 36.2063 39.8741 35.4544 39.6256C34.7024 39.3771 33.8902 39.3663 33.1316 39.5947L27.0098 41.4369C23.4552 42.476 20.2287 39.6664 16.7653 33.7695C14.432 29.7984 13.3443 26.723 13.6147 24.3314C13.7575 23.0893 14.3439 21.9428 15.2735 21.0889L19.8125 16.9297C20.3928 16.3982 20.7893 15.7016 20.9462 14.9374C21.1032 14.1733 21.0127 13.38 20.6875 12.669L17.9471 6.67949C17.5689 5.85365 16.8981 5.19112 16.0596 4.81538C15.2212 4.43964 14.2723 4.37632 13.3899 4.63722L13.3869 4.63424ZM54.6871 27.0216H34.7753L34.4715 26.9798L34.1646 26.8932L34.0188 26.8335C33.5873 26.6548 33.2253 26.3451 32.9858 25.9497L32.84 25.6661L32.764 25.466L32.6911 25.1824L32.6577 24.8689V5.35978C32.6631 4.79596 32.8847 4.25488 33.2782 3.84462C33.6718 3.43436 34.2084 3.1851 34.7808 3.14665C35.3532 3.10819 35.9193 3.28336 36.366 3.63717C36.8127 3.99097 37.1072 4.49738 37.1906 5.05523L37.2118 5.35978V19.378L56.109 0.797512C56.495 0.417482 57.007 0.186406 57.5519 0.146397C58.0967 0.106389 58.6381 0.260112 59.0772 0.57955L59.3324 0.797512C59.7183 1.17667 59.9529 1.67934 59.9936 2.21412C60.0343 2.7489 59.8784 3.28028 59.5542 3.71163L59.3324 3.96244L40.4353 22.5399L54.6841 22.5429C55.2352 22.5422 55.768 22.7379 56.1836 23.0936C56.5992 23.4494 56.8695 23.9411 56.9445 24.4777L56.9657 24.7823C56.9657 25.3234 56.7663 25.8462 56.4044 26.2541C56.0425 26.6619 55.5425 26.9271 54.997 27.0007L54.6871 27.0216Z" fill="white"/>
</svg>
