<svg width="40" height="40" viewBox="0 0 40 40"  xmlns="http://www.w3.org/2000/svg">
<g clip-path="url(#clip0_22_9)">
<path d="M36.5854 1.32812H17.1353C15.8719 1.32812 14.8438 2.35626 14.8438 3.61969V6.74194C14.8438 7.17346 15.1935 7.52319 15.625 7.52319H15.6689V21.2637C15.6689 22.5275 16.6968 23.5556 17.9605 23.5556H35.7605C37.0239 23.5556 38.0521 22.5275 38.0521 21.2637V7.52319H38.0957C38.5272 7.52319 38.877 7.17346 38.877 6.74194V3.61969C38.877 2.35626 37.8488 1.32812 36.5854 1.32812ZM16.4063 3.61969C16.4063 3.21777 16.7334 2.89063 17.1353 2.89063H36.5854C36.9873 2.89063 37.3145 3.21777 37.3145 3.61969V5.96069H16.4063V3.61969ZM24.2401 7.52319H29.4806V14.74L27.2269 13.5431C26.9977 13.4213 26.723 13.4213 26.4938 13.5431L24.2401 14.74V7.52319ZM36.4896 21.2637C36.4896 21.666 36.1624 21.9931 35.7605 21.9931H17.9605C17.5583 21.9931 17.2314 21.666 17.2314 21.2637V7.52319H22.6776V16.0397C22.6776 16.3138 22.8214 16.568 23.0563 16.709C23.1799 16.7835 23.3194 16.8207 23.4589 16.8207C23.5846 16.8207 23.7106 16.7905 23.8254 16.7294L26.8607 15.1175L29.8956 16.7294C30.1379 16.8582 30.4297 16.8506 30.6647 16.7093C30.8997 16.568 31.0434 16.3138 31.0434 16.0397V7.52319H36.4896V21.2637Z" />
<path d="M39.7705 27.8516C39.1757 26.4896 37.5778 25.8521 36.2088 26.4301L30.8047 28.7122C30.668 28.1919 30.4187 27.8199 30.1889 27.5699C29.6738 27.009 28.9252 26.7005 28.0813 26.7005C28.0701 26.7005 28.0591 26.7005 28.0478 26.7011C24.0521 26.8726 19.5837 26.9629 18.6825 26.8299C16.8585 25.2607 14.8877 24.5908 12.9733 24.8914C11.3266 25.1502 9.81933 26.1081 8.54827 27.6886C8.4497 27.6438 8.34045 27.619 8.22509 27.619H0.78125C0.349731 27.619 0 27.9688 0 28.4V37.9248C0 38.3564 0.349731 38.7061 0.78125 38.7061H8.22509C8.65661 38.7061 9.00634 38.3564 9.00634 37.9248V35.3717C9.5819 35.7202 10.0732 36.0898 10.5539 36.4518C11.8692 37.4414 13.1116 38.3765 15.4626 38.3765H25.8731C27.1994 38.3765 28.4857 37.9911 29.5935 37.262L38.7701 31.2223C39.8828 30.4901 40.3036 29.0723 39.7705 27.8516ZM7.44384 37.1436H1.5625V29.1812H7.44384V37.1436ZM37.9111 29.9173L28.7347 35.9568C27.8827 36.5174 26.893 36.814 25.8731 36.814H15.4626C13.6337 36.814 12.7362 36.1383 11.4935 35.2033C10.8032 34.6839 10.0323 34.1037 9.00634 33.5865V29.7513C10.1877 27.8278 11.64 26.6828 13.2156 26.4353C14.6994 26.2021 16.2756 26.782 17.775 28.1119C17.7798 28.1162 17.785 28.1208 17.7899 28.125C18.0749 28.3649 18.2809 28.5382 23.3642 28.4192C25.6274 28.3664 27.8711 28.2724 28.0966 28.263C28.3792 28.2651 28.7668 28.3313 29.0387 28.627C29.2297 28.8352 29.3338 29.1321 29.3454 29.4965C27.9455 30.8005 26.0702 31.543 24.1531 31.543H17.7847C17.3532 31.543 17.0035 31.8927 17.0035 32.3239C17.0035 32.7555 17.3532 33.1052 17.7847 33.1052H24.1531C26.5198 33.1052 28.8339 32.1665 30.5331 30.5231L36.8167 27.8696C37.4014 27.6227 38.0844 27.8949 38.3386 28.4769C38.5663 28.9984 38.3865 29.6042 37.9111 29.9173Z" />
<path d="M14.2566 33.1049C13.9303 33.1049 13.6313 32.8943 13.5217 32.587C13.4143 32.2845 13.5049 31.9357 13.7515 31.7282C14.0085 31.5118 14.3829 31.4841 14.6689 31.6608C14.9423 31.8301 15.0861 32.1613 15.0229 32.4768C14.9509 32.8375 14.624 33.1049 14.2566 33.1049Z" />
</g>
<defs>
<clipPath id="clip0_22_9">
<rect width="40" height="40"/>
</clipPath>
</defs>
</svg>
