<svg width="72" height="50" viewBox="0 0 72 50" fill="none" xmlns="http://www.w3.org/2000/svg">
<path d="M5.15149 33.8953C6.68323 32.3605 8.46465 31.136 10.4551 30.25L19.8766 26.1791L28.0835 5.05L33.6774 1.31512V20.214L49.4756 13.3872L49.4872 13.414L56.1855 0H60.3871V13.1663L72 17.8174V23.607L60.9852 20.6663L61.0316 20.7349L45.7746 30.9186L68.6427 40.4593L62.957 44.2546L34.0734 38.657C25.3695 44.0279 15.8772 47.7733 5.85058 49.7802C5.12594 49.9267 4.38503 50 3.64761 50C1.63626 50 0 48.3616 0 46.3477C0 41.6442 1.82903 37.2209 5.15149 33.8953ZM31.3548 5.66163L29.981 6.57791L22.8716 24.8849L31.3548 21.2186V5.66163ZM58.0645 2.32558H57.6209L51.0968 15.3907V16.2791H53.0977L58.0645 13.2953V2.32558ZM69.6774 20.5791V19.3919L59.3292 15.2477L56.369 17.0256L69.6774 20.5791ZM62.4623 41.7907L63.7444 40.936L38.4178 30.3698L29.9067 35.4826L62.4623 41.7907ZM3.64761 47.6744C4.23174 47.6744 4.82052 47.6163 5.39536 47.5012C14.3059 45.7163 22.7775 42.5116 30.6325 37.9907L23.5126 36.6105L38.2274 27.7698L43.1977 29.843L58.1017 19.8953L53.2672 18.6047H48.7742V16.2233L11.3876 32.3791C9.67007 33.1442 8.12439 34.207 6.79355 35.5395C3.91006 38.4267 2.32259 42.2651 2.32259 46.3477C2.32259 47.0791 2.91716 47.6744 3.64761 47.6744Z" fill="#F73425"/>
<path d="M8.43559 37.1837C9.56204 36.0558 10.8731 35.1535 12.3306 34.5058L13.2735 36.6302C12.0762 37.1628 11.0009 37.9023 10.0777 38.8279C8.6365 40.2721 7.64708 42.0756 7.21624 44.043L4.94824 43.5442C5.47431 41.1418 6.67972 38.9418 8.43559 37.1837Z" fill="#F73425"/>
<path d="M46.4516 20.9302H48.7742V23.2558H46.4516V20.9302Z" fill="#F73425"/>
<path d="M40.6452 23.2558H42.9677V25.5814H40.6452V23.2558Z" fill="#F73425"/>
</svg>
