<svg width="50" height="50" viewBox="0 0 50 50" fill="none" xmlns="http://www.w3.org/2000/svg">
<g clip-path="url(#clip0_6_107)">
<path d="M42.7083 50H5.20834C4.86043 50 4.53543 49.825 4.34168 49.5354L0.175009 43.2854C-0.0374914 42.9667 -0.0583248 42.5542 0.122925 42.2146C0.304175 41.8792 0.656259 41.6667 1.04168 41.6667H29.1667C32.0375 41.6667 34.375 39.3313 34.375 36.4584C34.375 35.8834 34.8417 35.4167 35.4167 35.4167H48.9583C49.3188 35.4167 49.6542 35.6042 49.8438 35.9104C50.0333 36.2167 50.0521 36.6 49.8896 36.9229L43.6396 49.4229C43.4625 49.7771 43.1021 50 42.7083 50ZM5.76668 47.9167H42.0646L47.2729 37.5H36.3833C35.8771 41.0292 32.8333 43.75 29.1667 43.75H2.98751L5.76668 47.9167Z" fill="#F73425"/>
<path d="M29.1667 43.75H19.7917C19.2167 43.75 18.75 43.2833 18.75 42.7083V28.125C18.75 27.55 19.2167 27.0833 19.7917 27.0833H36.4583C37.0333 27.0833 37.5 27.55 37.5 28.125V36.4583C37.5 37.0333 37.0333 37.5 36.4583 37.5C35.8833 37.5 35.4167 37.0333 35.4167 36.4583V29.1666H20.8333V41.6666H29.1667C29.7417 41.6666 30.2083 42.1333 30.2083 42.7083C30.2083 43.2833 29.7417 43.75 29.1667 43.75Z" fill="#F73425"/>
<path d="M25 39.5833C24.425 39.5833 23.9583 39.1167 23.9583 38.5417V32.2917C23.9583 31.7167 24.425 31.25 25 31.25C25.575 31.25 26.0417 31.7167 26.0417 32.2917V38.5417C26.0417 39.1167 25.575 39.5833 25 39.5833Z" fill="#F73425"/>
<path d="M29.1667 43.75H19.7917C19.2167 43.75 18.75 43.2833 18.75 42.7083V28.125C18.75 27.55 19.2167 27.0833 19.7917 27.0833H36.4583C37.0333 27.0833 37.5 27.55 37.5 28.125V36.4583C37.5 37.0333 37.0333 37.5 36.4583 37.5C35.8833 37.5 35.4167 37.0333 35.4167 36.4583V29.1666H20.8333V41.6666H29.1667C29.7417 41.6666 30.2083 42.1333 30.2083 42.7083C30.2083 43.2833 29.7417 43.75 29.1667 43.75Z" fill="#F73425"/>
<path d="M31.25 39.5833C30.675 39.5833 30.2083 39.1167 30.2083 38.5417V32.2917C30.2083 31.7167 30.675 31.25 31.25 31.25C31.825 31.25 32.2917 31.7167 32.2917 32.2917V38.5417C32.2917 39.1167 31.825 39.5833 31.25 39.5833Z" fill="#F73425"/>
<path d="M25 39.5833C24.425 39.5833 23.9583 39.1167 23.9583 38.5417V32.2917C23.9583 31.7167 24.425 31.25 25 31.25C25.575 31.25 26.0417 31.7167 26.0417 32.2917V38.5417C26.0417 39.1167 25.575 39.5833 25 39.5833Z" fill="#F73425"/>
<path d="M19.7917 43.75H3.12501C2.55001 43.75 2.08334 43.2833 2.08334 42.7083V28.125C2.08334 27.55 2.55001 27.0833 3.12501 27.0833H19.7917C20.3667 27.0833 20.8333 27.55 20.8333 28.125V42.7083C20.8333 43.2833 20.3667 43.75 19.7917 43.75ZM4.16668 41.6666H18.75V29.1666H4.16668V41.6666Z" fill="#F73425"/>
<path d="M8.33334 39.5833C7.75834 39.5833 7.29167 39.1167 7.29167 38.5417V32.2917C7.29167 31.7167 7.75834 31.25 8.33334 31.25C8.90834 31.25 9.375 31.7167 9.375 32.2917V38.5417C9.375 39.1167 8.90834 39.5833 8.33334 39.5833Z" fill="#F73425"/>
<path d="M19.7917 43.75H3.12501C2.55001 43.75 2.08334 43.2833 2.08334 42.7083V28.125C2.08334 27.55 2.55001 27.0833 3.12501 27.0833H19.7917C20.3667 27.0833 20.8333 27.55 20.8333 28.125V42.7083C20.8333 43.2833 20.3667 43.75 19.7917 43.75ZM4.16668 41.6666H18.75V29.1666H4.16668V41.6666Z" fill="#F73425"/>
<path d="M14.5833 39.5833C14.0083 39.5833 13.5417 39.1167 13.5417 38.5417V32.2917C13.5417 31.7167 14.0083 31.25 14.5833 31.25C15.1583 31.25 15.625 31.7167 15.625 32.2917V38.5417C15.625 39.1167 15.1583 39.5833 14.5833 39.5833Z" fill="#F73425"/>
<path d="M8.33334 39.5833C7.75834 39.5833 7.29167 39.1167 7.29167 38.5417V32.2917C7.29167 31.7167 7.75834 31.25 8.33334 31.25C8.90834 31.25 9.375 31.7167 9.375 32.2917V38.5417C9.375 39.1167 8.90834 39.5833 8.33334 39.5833Z" fill="#F73425"/>
<path d="M19.7917 29.1667H3.12501C2.55001 29.1667 2.08334 28.7 2.08334 28.125V15.625C2.08334 15.05 2.55001 14.5834 3.12501 14.5834H19.7917C20.3667 14.5834 20.8333 15.05 20.8333 15.625V28.125C20.8333 28.7 20.3667 29.1667 19.7917 29.1667ZM4.16668 27.0834H18.75V16.6667H4.16668V27.0834Z" fill="#F73425"/>
<path d="M8.33334 25C7.75834 25 7.29167 24.5333 7.29167 23.9583V19.7917C7.29167 19.2167 7.75834 18.75 8.33334 18.75C8.90834 18.75 9.375 19.2167 9.375 19.7917V23.9583C9.375 24.5333 8.90834 25 8.33334 25Z" fill="#F73425"/>
<path d="M19.7917 29.1667H3.12501C2.55001 29.1667 2.08334 28.7 2.08334 28.125V15.625C2.08334 15.05 2.55001 14.5834 3.12501 14.5834H19.7917C20.3667 14.5834 20.8333 15.05 20.8333 15.625V28.125C20.8333 28.7 20.3667 29.1667 19.7917 29.1667ZM4.16668 27.0834H18.75V16.6667H4.16668V27.0834Z" fill="#F73425"/>
<path d="M14.5833 25C14.0083 25 13.5417 24.5333 13.5417 23.9583V19.7917C13.5417 19.2167 14.0083 18.75 14.5833 18.75C15.1583 18.75 15.625 19.2167 15.625 19.7917V23.9583C15.625 24.5333 15.1583 25 14.5833 25Z" fill="#F73425"/>
<path d="M8.33334 25C7.75834 25 7.29167 24.5333 7.29167 23.9583V19.7917C7.29167 19.2167 7.75834 18.75 8.33334 18.75C8.90834 18.75 9.375 19.2167 9.375 19.7917V23.9583C9.375 24.5333 8.90834 25 8.33334 25Z" fill="#F73425"/>
<path d="M19.7917 16.6667H3.12501C2.55001 16.6667 2.08334 16.2 2.08334 15.625V3.12504C2.08334 2.55004 2.55001 2.08337 3.12501 2.08337H19.7917C20.3667 2.08337 20.8333 2.55004 20.8333 3.12504V15.625C20.8333 16.2 20.3667 16.6667 19.7917 16.6667ZM4.16668 14.5834H18.75V4.16671H4.16668V14.5834Z" fill="#F73425"/>
<path d="M8.33334 12.5C7.75834 12.5 7.29167 12.0333 7.29167 11.4583V7.29167C7.29167 6.71667 7.75834 6.25 8.33334 6.25C8.90834 6.25 9.375 6.71667 9.375 7.29167V11.4583C9.375 12.0333 8.90834 12.5 8.33334 12.5Z" fill="#F73425"/>
<path d="M19.7917 16.6667H3.12501C2.55001 16.6667 2.08334 16.2 2.08334 15.625V3.12504C2.08334 2.55004 2.55001 2.08337 3.12501 2.08337H19.7917C20.3667 2.08337 20.8333 2.55004 20.8333 3.12504V15.625C20.8333 16.2 20.3667 16.6667 19.7917 16.6667ZM4.16668 14.5834H18.75V4.16671H4.16668V14.5834Z" fill="#F73425"/>
<path d="M14.5833 12.5C14.0083 12.5 13.5417 12.0333 13.5417 11.4583V7.29167C13.5417 6.71667 14.0083 6.25 14.5833 6.25C15.1583 6.25 15.625 6.71667 15.625 7.29167V11.4583C15.625 12.0333 15.1583 12.5 14.5833 12.5Z" fill="#F73425"/>
<path d="M8.33334 12.5C7.75834 12.5 7.29167 12.0333 7.29167 11.4583V7.29167C7.29167 6.71667 7.75834 6.25 8.33334 6.25C8.90834 6.25 9.375 6.71667 9.375 7.29167V11.4583C9.375 12.0333 8.90834 12.5 8.33334 12.5Z" fill="#F73425"/>
<path d="M36.4583 29.1667H19.7917C19.2167 29.1667 18.75 28.7 18.75 28.125V15.625C18.75 15.05 19.2167 14.5834 19.7917 14.5834H36.4583C37.0333 14.5834 37.5 15.05 37.5 15.625V28.125C37.5 28.7 37.0333 29.1667 36.4583 29.1667ZM20.8333 27.0834H35.4167V16.6667H20.8333V27.0834Z" fill="#F73425"/>
<path d="M31.25 25C30.675 25 30.2083 24.5333 30.2083 23.9583V19.7917C30.2083 19.2167 30.675 18.75 31.25 18.75C31.825 18.75 32.2917 19.2167 32.2917 19.7917V23.9583C32.2917 24.5333 31.825 25 31.25 25Z" fill="#F73425"/>
<path d="M25 25C24.425 25 23.9583 24.5333 23.9583 23.9583V19.7917C23.9583 19.2167 24.425 18.75 25 18.75C25.575 18.75 26.0417 19.2167 26.0417 19.7917V23.9583C26.0417 24.5333 25.575 25 25 25Z" fill="#F73425"/>
<path d="M44.7917 37.5C44.2167 37.5 43.75 37.0333 43.75 36.4583V26.0417C43.75 25.4667 44.2167 25 44.7917 25C45.3667 25 45.8333 25.4667 45.8333 26.0417V36.4583C45.8333 37.0333 45.3667 37.5 44.7917 37.5Z" fill="#F73425"/>
</g>
<defs>
<clipPath id="clip0_6_107">
<rect width="50" height="50" fill="white"/>
</clipPath>
</defs>
</svg>
