<svg width="12" height="13" viewBox="0 0 12 13" fill="none" xmlns="http://www.w3.org/2000/svg">
<path d="M11.9683 4.30861C11.9306 4.19752 11.8612 4.09992 11.7686 4.02784C11.6761 3.95576 11.5644 3.91236 11.4475 3.903L8.02686 3.6312L6.54665 0.354583C6.49951 0.249049 6.42284 0.159414 6.32588 0.0964957C6.22892 0.0335769 6.11583 6.35278e-05 6.00025 9.02277e-08C5.88466 -6.33473e-05 5.77153 0.0333259 5.6745 0.0961382C5.57748 0.15895 5.5007 0.248501 5.45345 0.353983L3.97324 3.6312L0.552619 3.903C0.437692 3.91211 0.32782 3.95413 0.23615 4.02404C0.14448 4.09396 0.074892 4.1888 0.0357119 4.29722C-0.00346825 4.40565 -0.0105816 4.52307 0.0152228 4.63543C0.0410272 4.74779 0.0986568 4.85034 0.181217 4.93081L2.70903 7.39502L1.81503 11.2662C1.78788 11.3834 1.79658 11.5061 1.84 11.6182C1.88342 11.7304 1.95955 11.8269 2.05851 11.8953C2.15747 11.9637 2.2747 12.0007 2.39498 12.0016C2.51526 12.0026 2.63304 11.9673 2.73303 11.9005L6.00005 9.72244L9.26707 11.9005C9.36927 11.9683 9.4898 12.0032 9.61245 12.0006C9.7351 11.9979 9.85398 11.9577 9.95311 11.8854C10.0522 11.8131 10.1269 11.7122 10.1669 11.5963C10.207 11.4803 10.2106 11.3549 10.1773 11.2368L9.07987 7.39682L11.8015 4.94761C11.9797 4.78681 12.0451 4.53601 11.9683 4.30861Z" fill="#FFC444"/>
</svg>
