<svg width="50" height="50" viewBox="0 0 50 50" xmlns="http://www.w3.org/2000/svg">
<path d="M49.3437 15.5837L25.5188 3.86177C25.1916 3.7007 24.8082 3.7007 24.4811 3.86177L0.656441 15.5837C0.254584 15.7814 0 16.1904 0 16.6383V44.003C0 45.247 1.0121 46.2591 2.2561 46.2591H47.7438C48.9879 46.2591 50 45.247 50 44.003V16.6383C50 16.1904 49.7454 15.7814 49.3437 15.5837ZM39.3593 31.1857H10.6406V27.148H39.3593V31.1857ZM10.6406 33.5363H39.3593V37.5741H10.6406V33.5363ZM39.3593 24.7975H10.6406V20.6065H39.3593V24.7975ZM10.6406 39.9247H39.3593V43.9085H10.6406V39.9247ZM47.6494 43.9085H41.7099V19.4312C41.7099 18.782 41.1838 18.2558 40.5346 18.2558H9.4653C8.81622 18.2558 8.28998 18.782 8.28998 19.4312V43.9085H2.35064V17.3699L24.9999 6.2262L47.6494 17.3699V43.9085Z" />
</svg>
