<svg width="50" height="44" viewBox="0 0 50 44" fill="none" xmlns="http://www.w3.org/2000/svg">
<path d="M49.3437 12.5837L25.5188 0.861769C25.1916 0.700699 24.8082 0.700699 24.4811 0.861769L0.656441 12.5837C0.254584 12.7814 0 13.1904 0 13.6383V41.003C0 42.247 1.0121 43.2591 2.2561 43.2591H47.7438C48.9879 43.2591 50 42.247 50 41.003V13.6383C50 13.1904 49.7454 12.7814 49.3437 12.5837ZM39.3593 28.1857H10.6406V24.148H39.3593V28.1857ZM10.6406 30.5363H39.3593V34.5741H10.6406V30.5363ZM39.3593 21.7975H10.6406V17.6065H39.3593V21.7975ZM10.6406 36.9247H39.3593V40.9085H10.6406V36.9247ZM47.6494 40.9085H41.7099V16.4312C41.7099 15.782 41.1838 15.2558 40.5346 15.2558H9.4653C8.81622 15.2558 8.28998 15.782 8.28998 16.4312V40.9085H2.35064V14.3699L24.9999 3.2262L47.6494 14.3699V40.9085Z" fill="#F73425"/>
</svg>

