<svg width="40" height="40" viewBox="0 0 40 40" xmlns="http://www.w3.org/2000/svg">
<g clip-path="url(#clip0_22_25)">
<path d="M25.8939 8.57422C26.8961 8.57422 27.9068 9.20471 27.9068 10.3622C27.9068 12.2369 25.2375 12.8504 25.2375 13.6365V13.7143H27.5006C27.7167 13.7143 27.9068 13.9819 27.9068 14.2929C27.9068 14.6039 27.7167 14.8889 27.5006 14.8889H24.4254C24.1834 14.8889 23.8379 14.7251 23.8379 14.4745V13.6365C23.8379 12.28 26.5592 11.5027 26.5592 10.4056C26.5592 10.1291 26.3864 9.79218 25.9024 9.79218C25.557 9.79218 25.2545 9.96491 25.2545 10.4401C25.2545 10.6906 24.9869 10.9323 24.5462 10.9323C24.2008 10.9323 23.9414 10.777 23.9414 10.2325C23.9414 9.17877 24.9091 8.57422 25.8939 8.57422Z" />
<path d="M30.3864 13.5587H28.3649C28.1143 13.5587 27.9157 13.3945 27.9157 13.0921C27.9157 13.0231 27.9328 12.9279 27.9846 12.833L29.9802 8.91974C30.1099 8.66919 30.326 8.57397 30.5417 8.57397C30.7752 8.57397 31.2159 8.77264 31.2159 9.08362C31.2159 9.1355 31.1985 9.18738 31.1725 9.2478L29.6436 12.3145H30.3864V11.71C30.3864 11.4249 30.7233 11.3038 31.0602 11.3038C31.3971 11.3038 31.734 11.4249 31.734 11.71V12.3145H32.1054C32.3819 12.3145 32.5202 12.6255 32.5202 12.9368C32.5202 13.2474 32.313 13.5587 32.1054 13.5587H31.734V14.4743C31.734 14.7507 31.3971 14.889 31.0602 14.889C30.7233 14.889 30.3864 14.7507 30.3864 14.4743V13.5587Z"/>
<path d="M35.7035 12.6804C35.2719 12.6804 34.9222 12.3307 34.9222 11.8992C34.9222 8.18091 31.8973 5.15601 28.179 5.15601C27.7475 5.15601 27.3978 4.80628 27.3978 4.37476C27.3978 3.94324 27.7475 3.59351 28.179 3.59351C32.7588 3.59351 36.4844 7.3194 36.4844 11.8992C36.4844 12.3307 36.1347 12.6804 35.7035 12.6804Z"/>
<path d="M28.1791 23.7201C26.2616 23.7201 24.3689 23.2532 22.6825 22.367L19.6613 23.2944C19.4031 23.3734 19.123 23.3139 18.9194 23.1372C18.7159 22.9602 18.6179 22.6908 18.6606 22.4243L19.1266 19.5017C17.3386 17.3743 16.3581 14.6893 16.3581 11.8991C16.3581 5.38087 21.6608 0.078125 28.1791 0.078125C34.697 0.078125 40 5.38087 40 11.8991C40 18.4171 34.697 23.7201 28.1791 23.7201ZM22.7674 20.7425C22.9004 20.7425 23.0329 20.7767 23.151 20.8432C24.6772 21.7032 26.4157 22.1576 28.1791 22.1576C33.8355 22.1576 38.4375 17.5559 38.4375 11.8991C38.4375 6.24268 33.8355 1.64063 28.1791 1.64063C22.5223 1.64063 17.9203 6.24238 17.9203 11.8991C17.9203 14.4299 18.8498 16.8607 20.5374 18.7433C20.6943 18.9185 20.7642 19.1553 20.727 19.3878L20.4007 21.4328L22.5382 20.777C22.6133 20.7541 22.6905 20.7425 22.7674 20.7425Z" />
<path d="M11.2225 29.6164C10.8954 29.6164 10.5982 29.4058 10.4877 29.0985C10.379 28.7964 10.4718 28.4476 10.7172 28.2398C10.9735 28.0228 11.3492 27.9959 11.6345 28.1723C11.9083 28.3414 12.0511 28.6731 11.9888 28.9884C11.9177 29.3491 11.5891 29.6164 11.2225 29.6164Z" />
<path d="M32.2965 31.1828L27.5589 26.4452C26.2216 25.1079 24.0451 25.1079 22.7078 26.4452L20.0907 29.0624C19.9982 29.1552 19.8532 29.164 19.7531 29.0835C18.6868 28.2256 16.9855 26.6521 15.2036 24.8763C13.4259 23.0926 11.8524 21.3912 10.9946 20.3249C10.914 20.2248 10.9229 20.0799 11.0156 19.9874L13.6328 17.3702C14.9701 16.0326 14.9701 13.8564 13.6328 12.5188L8.89527 7.78127C7.55768 6.44368 5.38147 6.44368 4.04358 7.78127L1.73279 10.0921C-0.296937 12.1221 -0.54474 15.02 0.996399 18.7057C1.23383 19.2733 1.74683 20.0612 2.56439 21.1144C2.57691 21.1306 2.59003 21.1461 2.60376 21.1611L4.2154 22.9314C4.22364 22.9406 4.23188 22.9494 4.24073 22.958L8.1955 26.9131C8.50068 27.2182 8.99537 27.2182 9.30054 26.9131C9.60542 26.6079 9.60542 26.1132 9.30054 25.8083L5.35859 21.8661L3.77991 20.132C2.89459 18.9898 2.56134 18.3983 2.43775 18.1029C1.14685 15.0158 1.27777 12.7569 2.83783 11.1971L3.67737 10.3573L11.0568 17.7364L9.9109 18.8824C9.25294 19.54 9.19556 20.5813 9.77723 21.3042C10.6677 22.4111 12.2827 24.1585 14.0988 25.9811C15.9192 27.7953 17.6669 29.41 18.7735 30.3005C19.4965 30.8822 20.5377 30.8248 21.1954 30.1672L22.3413 29.0209L29.7208 36.4004L28.8809 37.2399C27.3209 38.8 25.0623 38.9309 21.9751 37.64C21.6644 37.51 20.8893 37.0837 19.1794 35.6872L14.2697 30.7772C13.9646 30.472 13.4699 30.4723 13.1647 30.7772C12.8598 31.0824 12.8598 31.5768 13.1647 31.8819L18.1024 36.8197C18.1207 36.838 18.14 36.8554 18.1601 36.8719C19.6173 38.0642 20.668 38.7869 21.3724 39.0814C22.9614 39.746 24.4034 40.0778 25.6934 40.0778C27.395 40.0778 28.8309 39.4997 29.9857 38.345L32.2965 36.0339C33.6341 34.6969 33.6341 32.5204 32.2965 31.1828ZM7.79023 8.88631L12.5278 13.6239C13.2562 14.3523 13.2562 15.5373 12.5278 16.2655L12.1616 16.632L4.78211 9.25252L5.14862 8.88631C5.87677 8.15785 7.06208 8.15785 7.79023 8.88631ZM31.1917 34.9294L30.8255 35.2956L23.4461 27.9165L23.8126 27.5503C24.5407 26.8218 25.7257 26.8218 26.4542 27.5503L31.1917 32.2878C31.9202 33.016 31.9202 34.2013 31.1917 34.9294Z" />
</g>
<defs>
<clipPath id="clip0_22_25">
<rect width="40" height="40" />
</clipPath>
</defs>
</svg>
