<svg width="50" height="50" viewBox="0 0 50 50" fill="none" xmlns="http://www.w3.org/2000/svg">
<g clip-path="url(#clip0_420_713)">
<path d="M0.0226898 37.3073C0.0616341 37.193 0.146839 37.1001 0.257648 37.0516L20.0194 28.4058L18.0819 27.2876C16.1884 26.1954 14.5221 24.7902 13.1245 23.1105L4.30664 23.3426C4.30287 23.3427 4.29911 23.3427 4.29534 23.3427C4.21358 23.3427 4.13343 23.3193 4.06437 23.2754L2.36363 22.1932C2.21636 22.0995 2.1403 21.926 2.17106 21.7541C2.20183 21.5822 2.33351 21.4461 2.50424 21.4093L10.7877 19.6294L9.38625 17.2601C9.10191 16.7795 9.03446 16.2244 9.19626 15.6969C9.31911 15.2964 9.56408 14.9484 9.88972 14.7003L7.29543 7.99314C7.23002 7.82413 7.27746 7.63231 7.4142 7.51333C7.55082 7.39445 7.74726 7.3739 7.90573 7.46169L12.776 10.1673C12.8296 10.197 12.876 10.2378 12.9125 10.287L16.9885 15.7754L19.2434 12.3925C19.3729 12.1981 19.6337 12.1425 19.8312 12.2674L21.3004 13.1951C21.4383 13.2822 21.5151 13.4397 21.4988 13.602L20.9713 18.8376C23.2745 20.1637 26.0573 21.767 28.9299 23.4252L38.9522 14.5506C39.0741 14.4428 39.2464 14.4129 39.3972 14.4732C40.6992 14.994 41.3382 16.4321 40.8519 17.7474L38.987 22.7917L42.0015 24.7962C42.3811 25.0274 42.6109 25.4668 42.6314 26.0093C42.6499 26.4977 42.5034 27.0381 42.2187 27.5312C41.9341 28.0242 41.5392 28.4214 41.107 28.6496C40.8451 28.7878 40.5785 28.8573 40.3268 28.8573C40.1078 28.8573 39.9002 28.8046 39.7171 28.6989C39.7066 28.6928 37.3989 27.0882 37.3989 27.0882L37.0228 28.1057C40.157 29.9232 42.9108 31.5282 44.6671 32.5677C46.6143 33.7201 48.1541 35.3643 49.1201 37.3225C49.4512 37.9938 49.7175 38.7006 49.9116 39.4232C50.1502 40.3139 49.8992 41.2301 49.2403 41.874C48.76 42.3432 48.1404 42.5924 47.4969 42.5924C47.2583 42.5924 47.0164 42.5581 46.7772 42.488C45.1814 42.0192 43.601 41.4512 42.0804 40.7999C40.5582 40.1483 39.0564 39.3966 37.6166 38.5656L29.7615 34.0296L22.8145 35.3468L24.165 36.2226C24.5471 36.453 24.7784 36.8941 24.799 37.4387C24.8175 37.9271 24.671 38.4675 24.3864 38.9605C23.9064 39.7918 23.1606 40.2876 22.4931 40.2876C22.2783 40.2876 22.0718 40.2363 21.8847 40.1284C21.8741 40.1223 16.6782 36.5104 16.6782 36.5104L3.09475 39.0859C2.91498 39.12 2.73532 39.1366 2.55738 39.1366C1.52795 39.1366 0.563927 38.5812 0.053566 37.6532C-0.00517273 37.5473 -0.0162544 37.4218 0.0226898 37.3073ZM3.71096 22.0304L4.41551 22.4787L15.0552 22.1988C14.324 21.6354 13.0694 20.884 11.8887 20.2732L3.71096 22.0304ZM12.277 10.8746L8.52711 8.79138L11.2098 15.727L18.8978 19.7898L12.277 10.8746ZM19.7267 13.2192L17.5336 16.5094L17.9874 17.1204C18.626 17.4878 19.3543 17.9069 20.1537 18.3671L20.6158 13.7807L19.7267 13.2192ZM40.0935 27.9138L40.1574 27.9583C40.2894 28.0278 40.4878 28.0032 40.7051 27.8886C40.9916 27.7374 41.2716 27.4503 41.4732 27.101C41.6749 26.7517 41.7836 26.3657 41.7713 26.0418C41.7618 25.7903 41.6807 25.6024 41.5488 25.5262C41.4979 25.497 41.4365 25.4823 41.3672 25.4823C41.2572 25.4823 41.1276 25.5192 40.9909 25.5914C40.7044 25.7426 40.4244 26.0297 40.2228 26.379C39.8477 27.0287 39.8501 27.6915 40.0935 27.9138ZM39.071 27.2029C39.1023 26.8009 39.2359 26.367 39.4774 25.9487C39.7515 25.4739 40.1281 25.0897 40.5416 24.8579L38.6804 23.6211L37.7069 26.2544L39.071 27.2029ZM40.0449 17.4489C40.3379 16.6561 40.0162 15.7963 39.3086 15.3846L29.716 23.8788C31.9264 25.1552 34.1683 26.4513 36.267 27.6677L40.0449 17.4489ZM48.4637 41.4076C48.5245 41.3624 48.5829 41.3128 48.6385 41.2586C49.071 40.8359 49.2362 40.2347 49.0808 39.6499C48.9388 39.5532 48.7728 39.5 48.6027 39.5C48.1093 39.5 47.7077 39.9307 47.7077 40.4601C47.7078 40.9356 48.0373 41.3353 48.4637 41.4076ZM38.0466 37.8203C39.4568 38.6342 40.9279 39.3705 42.4189 40.0088C43.9084 40.6468 45.4562 41.2032 47.0192 41.6623C47.1272 41.6938 47.2359 41.7142 47.3443 41.724C47.0372 41.3951 46.8471 40.9485 46.8471 40.4599C46.8471 39.456 47.6347 38.6393 48.6029 38.6393C48.6547 38.6393 48.7062 38.6417 48.7576 38.6464C48.6362 38.3255 48.4996 38.0102 48.348 37.7031C48.3232 37.653 48.2966 37.6039 48.2711 37.5542C47.8041 38.112 46.8945 38.3929 45.5596 38.3929C45.2189 38.3929 44.8506 38.3746 44.4548 38.338C44.2181 38.3161 44.044 38.1065 44.066 37.8697C44.0879 37.633 44.298 37.4614 44.5342 37.4809C46.6733 37.6795 47.3741 37.2729 47.6015 37.0134C47.7294 36.8675 47.7446 36.7222 47.7412 36.6426C46.863 35.2989 45.6668 34.1592 44.2288 33.3081C39.2469 30.3597 26.2328 22.8582 19.2752 18.854L20.7206 20.8002C20.8404 20.9616 20.8327 21.1845 20.7017 21.337C20.6177 21.4349 20.4973 21.4872 20.3749 21.4872C20.3066 21.4872 20.2377 21.471 20.1741 21.4373L10.6654 16.4125C10.5736 16.364 10.5025 16.2841 10.4652 16.1873L10.2249 15.5662C10.1337 15.678 10.0627 15.8073 10.0192 15.9491C9.92931 16.2423 9.96772 16.5521 10.1272 16.8218L11.6749 19.4386L11.8583 19.3992C11.9552 19.3786 12.0562 19.3918 12.1445 19.4368C12.7722 19.7572 15.9292 21.4072 16.4308 22.4106C16.4966 22.5423 16.4906 22.6984 16.415 22.8244C16.3393 22.9506 16.2043 23.0294 16.0573 23.0333L14.2368 23.0811C15.4721 24.4535 16.9065 25.6157 18.5123 26.5421L20.9988 27.9773L21.2849 27.8521C21.3801 27.8105 21.4872 27.8048 21.5864 27.8359C21.8621 27.9225 28.3724 29.9907 31.3515 33.0483C31.4621 33.1618 31.5014 33.3268 31.4537 33.478C31.4061 33.6292 31.2791 33.7418 31.1235 33.7714L31.0569 33.784L38.0466 37.8203ZM22.2623 39.345L22.322 39.3865C22.6202 39.5473 23.2427 39.2195 23.6406 38.5304C23.8423 38.1811 23.9509 37.7951 23.9386 37.4714C23.9291 37.2197 23.8479 37.0318 23.7161 36.9556C23.6645 36.9259 23.6027 36.9113 23.5337 36.9113C23.2078 36.9113 22.7211 37.2352 22.3902 37.8084C22.0141 38.4596 22.0173 39.124 22.2623 39.345ZM21.2383 38.6331C21.2694 38.231 21.403 37.7968 21.6448 37.3781C21.9262 36.8905 22.2993 36.5192 22.6943 36.2947L21.5831 35.5803L17.8624 36.2858L21.2383 38.6331ZM2.93402 38.2406L30.1282 33.0841C27.3533 30.7203 22.4071 29.0132 21.4798 28.7064L1.08655 37.6284C1.5471 38.1311 2.24056 38.3722 2.93402 38.2406Z" fill="white" stroke="white"/>
</g>
<defs>
<clipPath id="clip0_420_713">
<rect width="50" height="50" fill="white" transform="matrix(-1 0 0 1 50 0)"/>
</clipPath>
</defs>
</svg>
