<svg width="1920" height="635" viewBox="0 0 1920 635" fill="none" xmlns="http://www.w3.org/2000/svg">
<path d="M775.904 443.306C738.625 443.306 698.95 439.809 652.04 432.429C527.169 412.783 435.888 359.404 347.577 307.798C313.748 288.008 278.769 267.596 242.927 249.771C180.731 218.721 117.96 197.973 41.3417 197.973C-18.6979 197.973 -87.1708 210.719 -170.546 241.242L-170.642 241.05C-123.444 223.752 -80.702 211.965 -40.0208 205.017C-1.92703 198.5 33.2917 196.344 67.648 198.548C98.8896 200.513 128.981 206.071 159.6 215.463C185.81 223.513 213.123 234.677 243.023 249.627C278.865 267.404 313.844 287.865 347.673 307.654C435.983 359.261 527.265 412.64 652.088 432.285C727.413 444.169 826.792 453.465 927.8 419.971C992.583 398.504 1055.93 364.34 1116.06 318.483C1186.84 264.529 1259.96 221.165 1333.46 189.588C1401.74 160.215 1470.02 141.096 1536.49 132.758C1563.65 129.356 1590.25 127.631 1616.36 127.631C1680 127.631 1740.66 137.838 1800.22 158.442C1885.65 188.006 1970.23 239.421 2058.68 315.608L2058.54 315.8C1909.76 187.623 1770.56 127.823 1616.55 127.823C1590.34 127.823 1563.7 129.548 1536.53 132.998C1398.1 150.44 1252.77 214.648 1116.26 318.675C1085.21 342.346 1053.15 363.046 1020.9 380.2C990.619 396.3 959.329 409.765 927.944 420.211C883.525 434.969 836.95 442.54 785.583 443.354C782.277 443.258 779.115 443.306 775.904 443.306Z" fill="#F73425"/>
<path d="M729.569 452.123C710.594 452.123 690.613 451.356 669.098 449.871C605.944 445.462 546.91 431.614 483.277 406.362C427.119 384.081 376.231 356.433 322.325 327.204C298.606 314.314 274.025 300.993 249.204 288.296C125.579 224.662 17.2875 201.039 -170.402 268.793L-170.546 268.362C-122.438 251.016 -79.1687 239.468 -38.3438 233.096C-0.15416 227.154 35.1604 225.86 69.6604 229.166C100.71 232.137 131.09 238.846 162.523 249.723C188.781 258.779 216.381 270.95 249.396 287.912C274.217 300.61 298.798 313.931 322.517 326.82C429.515 384.896 530.523 439.712 669.146 449.391C743.417 454.566 840.975 454.758 937.096 409.86C998.142 381.302 1059.43 342.873 1119.23 295.531C1191.01 238.702 1266.28 196.2 1343 169.223C1378.36 156.764 1413.96 147.708 1448.8 142.293C1482.2 137.118 1515.11 135.202 1546.64 136.687C1639.99 141.048 1721.73 158.01 1803.91 190.018C1887.19 222.458 1971.66 270.614 2069.8 341.531L2069.56 341.866C1877.65 203.148 1731.08 145.743 1546.64 137.118C1539.5 136.783 1532.32 136.591 1525.13 136.591C1393.07 136.591 1249.9 192.606 1119.56 295.866C1059.76 343.208 998.429 381.733 937.336 410.243C895.696 429.698 851.229 442.06 801.396 448.002C778.492 450.781 754.965 452.123 729.569 452.123Z" fill="#F73425"/>
<path d="M653.237 468.511C520.269 468.511 413.223 411.203 300.331 350.732C285.717 342.921 270.623 334.823 255.529 326.917C138.996 265.248 33.627 223.848 -170.163 296.442L-170.402 295.819C-76.2459 262.278 0.708313 250.921 71.7208 259.93C135.737 268.076 191.608 292.369 255.817 326.342C270.91 334.248 286.004 342.346 300.619 350.157C413.415 410.532 520.412 467.84 653.237 467.84C664.067 467.84 675.04 467.457 686.204 466.69C776.671 460.317 864.646 450.398 946.44 399.99C1003.41 364.867 1061.01 323.228 1122.44 272.771C1192.92 214.888 1270.36 174.878 1352.58 153.842C1419.62 136.688 1488.38 132.28 1556.85 140.857C1642.33 151.494 1719.81 174.446 1808.08 215.223C1890.92 253.509 1977.03 304.684 2081.01 367.646L2080.68 368.221C1872.53 242.2 1735.87 163.809 1556.8 141.48C1448.51 127.967 1285.31 139.898 1122.87 273.251C1061.39 323.755 1003.8 365.394 946.775 400.517C909.16 423.709 866.802 440.192 817.256 450.925C771.927 460.748 725.879 464.534 686.252 467.361C675.087 468.128 664.067 468.511 653.237 468.511Z" fill="#F73425"/>
<path d="M645.81 487.917C589.844 487.917 533.733 479.004 475.802 461.035C400.717 437.748 328.602 401.331 261.854 365.49C127.256 292.608 31.0396 253.413 -169.971 323.994L-170.258 323.179C-74.8562 289.685 2.67294 279.335 73.7813 290.644C141.392 301.377 199.131 330.558 262.237 364.723C398.56 437.94 534.883 502.196 703.263 483.892C806.715 472.679 889.275 441.965 955.735 389.975C1009.83 347.665 1062.78 303.342 1125.65 249.867C1196.9 189.252 1276.54 150.967 1362.26 136.065C1446.79 121.402 1520.34 132.71 1567.1 144.833C1691.74 177.033 1789.01 230.365 1912.15 297.879C1964.67 326.677 2024.18 359.308 2092.13 393.617L2091.74 394.383C2023.75 360.027 1964.24 327.396 1911.72 298.646C1788.62 231.179 1691.4 177.896 1566.86 145.696C1475.92 122.169 1297.76 104.583 1126.17 250.538C1063.26 304.06 1010.31 348.335 956.215 390.694C889.658 442.779 806.906 473.542 703.31 484.802C684.144 486.863 664.977 487.917 645.81 487.917Z" fill="#F73425"/>
<path d="M620.127 512.259C577.673 512.259 534.883 506.893 491.04 496.159C423.333 479.58 352.513 450.351 268.131 404.064C136.312 331.182 41.0542 278.522 -169.779 351.595L-170.115 350.589C-72.1729 316.616 3.67918 307.607 75.8417 321.359C144.41 334.393 204.785 367.791 268.658 403.105C444.896 499.753 579.925 529.078 720.273 501.143C820.227 481.257 902.596 440.48 964.983 380.057C1013.19 333.339 1069.59 279.193 1128.81 227.059C1201.07 163.474 1282.81 126.961 1371.89 118.576C1458.33 110.43 1531.36 130.603 1577.41 148.955C1661.64 182.545 1731.17 223.178 1804.77 266.207C1885.46 313.357 1976.89 366.832 2103.34 419.684L2102.91 420.691C1976.36 367.791 1884.89 314.316 1804.2 267.166C1730.64 224.184 1661.16 183.551 1576.98 150.009C1502.7 120.397 1310.37 68.6948 1129.53 227.922C1070.35 280.055 1013.95 334.201 965.75 380.92C903.171 441.486 820.658 482.311 720.465 502.293C687.019 508.953 653.669 512.259 620.127 512.259Z" fill="#F73425"/>
<path d="M598.852 539.858C496.79 539.858 391.038 507.85 274.456 442.731L264.202 436.933C127.208 359.692 36.7417 308.66 -169.587 379.289L-170.019 378.044C36.8375 307.223 127.544 358.35 264.825 435.783L275.079 441.581C444.8 536.456 591.665 560.894 737.331 518.487C835.369 489.929 915.102 440.048 974.327 370.233C1031.01 303.437 1081.13 250.681 1132.07 204.298C1205.38 137.55 1289.28 102.858 1381.48 101.229C1383.73 101.181 1385.98 101.181 1388.18 101.181C1478.79 101.181 1551.82 133.525 1587.71 153.123C1647.65 185.85 1699.11 220.781 1748.85 254.562C1845.4 320.112 1945.21 387.867 2114.5 445.75L2114.07 446.996C1944.64 389.064 1844.73 321.214 1748.09 255.664C1698.35 221.931 1646.98 187 1587.09 154.321C1528.67 122.456 1323.4 31.8936 1132.93 205.304C1082 251.687 1031.92 304.348 975.286 371.144C915.917 441.15 835.944 491.175 737.667 519.781C691.763 533.102 645.715 539.81 598.852 539.858Z" fill="#F73425"/>
<path d="M581.362 569.759C561.477 569.759 541.544 568.513 521.467 566.069C443.746 556.486 362.767 527.975 280.781 481.305C271.965 476.273 263.388 471.29 254.954 466.45C121.41 389.352 33.1958 338.417 -169.396 406.89L-169.875 405.452C-74.3292 373.157 -0.920837 365.346 68.175 380.104C132.192 393.809 186.721 425.29 255.721 465.109C264.106 469.948 272.683 474.932 281.5 479.963C446.908 574.071 605.992 592.807 754.294 535.738C849.217 499.177 928.519 438.563 983.575 360.363C1034.32 288.296 1083.96 229.79 1135.28 181.49C1209.74 111.436 1295.7 78.6129 1390.91 83.8837C1461.74 87.8608 1537.25 114.598 1598.06 157.244C1643.72 189.252 1683.06 221.117 1721.11 251.88C1825.71 336.548 1924.56 416.521 2125.72 471.769L2125.33 473.254C1923.89 417.911 1824.94 337.842 1720.2 253.077C1682.2 222.315 1642.86 190.498 1597.24 158.49C1482.2 77.7983 1292.45 35.6795 1136.38 182.592C1085.16 230.796 1035.56 289.255 984.917 361.225C929.669 439.665 850.175 500.519 754.965 537.127C698.567 558.834 640.396 569.759 581.362 569.759Z" fill="#F73425"/>
<path d="M568.186 601.862C557.692 601.862 547.15 601.527 536.608 600.808C454.336 595.25 370.386 568.033 287.106 519.925C273.115 511.779 259.746 503.873 246.856 496.206C111.875 416.185 30.3688 367.885 -169.108 434.537L-169.683 432.86C-75.4791 401.379 -3.3645 394.048 64.1022 409.046C126.777 422.989 180.156 454.614 247.719 494.673C260.656 502.339 273.977 510.246 287.969 518.344C452.898 613.65 620.079 625.629 771.352 552.987C864.742 508.137 941.313 438.131 992.919 350.444C1039.4 271.429 1087.03 208.706 1138.54 158.633C1213.1 86.1353 1303.61 54.2707 1400.26 66.5374C1504.57 79.7145 1580.62 137.262 1608.5 161.364C1645.64 193.517 1677.79 224.471 1708.84 254.419C1821.69 363.237 1910.81 449.152 2136.93 497.787L2136.55 499.512C2032.66 477.183 1950.68 445.367 1878.61 399.367C1813.54 357.871 1762.08 308.229 1707.6 255.712C1676.55 225.764 1644.44 194.858 1607.35 162.706C1514.92 82.6853 1312.43 -7.92509 1139.78 159.879C1088.37 209.856 1040.84 272.483 994.452 351.306C942.702 439.281 865.844 509.527 772.167 554.521C706.665 586.002 638.24 601.862 568.186 601.862Z" fill="#F73425"/>
<path d="M558.171 635.5C555.967 635.5 553.763 635.5 551.606 635.452C465.26 634.206 378.387 608.283 293.383 558.45C274.36 547.285 256.679 536.504 239.621 526.058C107.658 445.654 28.0208 397.067 -168.965 462.09L-169.588 460.221C28.2604 394.91 108.185 443.642 240.627 524.381C257.733 534.779 275.367 545.56 294.39 556.725C459.894 653.756 635.317 658.548 788.315 570.238C880.315 517.146 954.25 437.7 1002.17 340.573C1044.67 254.371 1090.29 187.383 1141.7 135.825C1203.46 73.8209 1274.81 42.771 1353.44 43.4418C1463.36 44.4001 1562.55 107.123 1618.76 165.533C1650.72 198.74 1678.32 230.173 1705.01 260.552C1818.91 390.215 1901.18 483.94 2148 523.806L2147.71 525.723C2033.76 507.323 1947.08 475.794 1874.78 426.535C1808.65 381.494 1759.97 326.006 1703.57 261.798C1676.88 231.419 1649.28 199.986 1617.37 166.827C1561.45 108.704 1462.74 46.2689 1353.44 45.3105C1352.63 45.3105 1351.77 45.3105 1350.95 45.3105C1273.76 45.3105 1203.85 76.2168 1143.14 137.119C1091.91 188.533 1046.39 255.377 1003.99 341.388C955.927 438.898 881.704 518.583 789.369 571.915C716.296 614.129 638.575 635.5 558.171 635.5Z" fill="#F73425"/>
<path d="M550.792 670.384C465.979 670.384 381.598 645.755 299.66 597.072C275.75 582.84 254.092 569.28 233.152 556.103C104.065 475.076 26.1042 426.153 -168.821 489.738L-169.492 487.678C26.3917 423.757 104.688 472.872 234.302 554.234C255.242 567.363 276.852 580.924 300.763 595.155C470.052 695.78 649.213 693.097 805.277 587.584C894.786 527.065 968.002 435.832 1011.41 330.751C1050.04 237.266 1093.69 166.061 1144.86 113.018C1206.1 49.5759 1277.11 19.053 1355.84 22.2634C1472.47 27.0551 1575.92 104.68 1629.06 169.703C1657.71 204.73 1682.39 237.601 1706.25 269.37C1815.41 414.749 1894.33 519.782 2159.07 549.826L2158.83 551.982C1893.13 521.843 1814.02 416.474 1704.48 270.663C1680.62 238.895 1655.94 206.072 1627.34 171.045C1574.48 106.405 1471.61 29.1634 1355.7 24.4197C1277.54 21.2092 1207.15 51.4926 1146.4 114.503C1095.41 167.307 1051.9 238.32 1013.38 331.566C969.775 437.078 896.271 528.647 806.427 589.357C731.725 639.861 650.986 666.982 566.413 670.049C561.286 670.288 556.063 670.384 550.792 670.384Z" fill="#F73425"/>
<path d="M546.335 706.321C465.356 706.321 384.089 682.603 306.033 635.644C277.331 618.394 252.031 602.007 227.546 586.194C101.046 504.401 24.7146 455.047 -168.533 517.386L-169.252 515.086C25.0979 452.411 101.812 502.005 228.887 584.182C253.325 599.994 278.625 616.334 307.279 633.584C431.91 708.574 564.687 723.955 691.283 678.003C838.867 624.432 962.06 490.936 1020.81 320.928C1056.12 218.722 1100.4 139.611 1152.43 85.7527C1198.15 38.4111 1249.99 10.3798 1306.44 2.37775C1368.01 -6.34309 1435.05 9.1819 1500.31 47.3236C1554.31 78.8527 1605.05 124.997 1639.55 173.919C1666.05 211.486 1688.72 246.513 1710.66 280.342C1818.33 446.469 1889.44 556.246 2170.37 575.892L2170.18 578.288C1888.05 558.546 1816.7 448.386 1708.65 281.636C1686.75 247.807 1664.09 212.828 1637.59 175.261C1570.51 80.0986 1438.35 -13.866 1306.77 4.72565C1186.98 21.6882 1088.9 131.274 1023.11 321.646C964.121 492.374 840.4 626.396 692.146 680.207C644.085 697.648 595.258 706.321 546.335 706.321Z" fill="#F73425"/>
</svg>
