<svg width="14" height="14" viewBox="0 0 14 14" fill="none" xmlns="http://www.w3.org/2000/svg">
<path d="M12.425 12.25C12.95 11.8125 14 10.85 14 9.45C14 8.225 12.95 7.175 11.55 6.5625C11.9875 6.0375 12.25 5.25 12.25 4.4625C12.25 2.0125 9.7125 0 6.475 0C3.4125 0 0 1.8375 0 4.4625C0 6.3 1.4 7.6125 2.0125 8.1375C1.925 9.1875 1.4875 9.625 1.4875 9.625L0.4375 10.5H1.75C2.8 10.5 3.675 10.2375 4.375 9.8875C4.6375 11.55 6.5625 12.8625 9.0125 12.8625H9.45C9.975 13.3 11.025 14 12.5125 14H13.7375L12.775 13.2125C12.775 13.2125 12.5125 12.95 12.425 12.25ZM9.0125 11.9875C7 11.9875 5.25 10.85 5.25 9.5375V9.3625C5.425 9.1875 5.6 9.1 5.6875 8.925H6.3C8.1375 8.925 9.8 8.3125 10.85 7.2625C12.1625 7.7 13.125 8.575 13.125 9.45C13.125 10.325 12.3375 11.2 11.6375 11.6375L11.375 11.8125V12.075C11.375 12.5125 11.55 12.775 11.6375 13.0375C10.7625 12.8625 10.15 12.425 9.975 12.1625L9.8875 11.9875H9.0125ZM6.475 0.875C9.1875 0.875 11.375 2.5375 11.375 4.4625C11.375 6.3875 9.1 8.05 6.3 8.05H5.3375L5.25 8.225C4.9875 8.575 3.9375 9.275 2.5375 9.5375C2.625 9.1875 2.625 8.6625 2.625 7.9625V7.7C1.75 7 0.7875 5.775 0.7875 4.55C0.7875 2.625 3.5875 0.875 6.475 0.875Z" fill="#F73425"/>
</svg>
