<svg width="30" height="40" viewBox="0 0 30 40" fill="none" xmlns="http://www.w3.org/2000/svg">
<path d="M5.5022 0.931769L7.7903 0.233096C9.04373 -0.150629 10.3919 -0.0582557 11.5832 0.492978C12.7744 1.04421 13.7275 2.01665 14.2644 3.22883L16.0329 7.22181C16.4946 8.26445 16.6232 9.42766 16.4006 10.5482C16.178 11.6688 15.6154 12.6905 14.7918 13.47L11.8626 16.2428C11.777 16.3238 11.7227 16.4333 11.7097 16.5514C11.6234 17.3416 12.1508 18.8803 13.3664 21.0201C14.2507 22.5747 15.0526 23.6675 15.733 24.2786C16.2074 24.7065 16.4682 24.7981 16.58 24.7662L20.5209 23.5421C21.5971 23.2079 22.7494 23.2239 23.8162 23.588C24.883 23.9521 25.8108 24.646 26.4696 25.5724L28.9812 29.1076C29.745 30.1826 30.0985 31.5025 29.9763 32.8222C29.8541 34.1419 29.2643 35.3717 28.3165 36.2834L26.5794 37.9554C25.6574 38.8418 24.525 39.4707 23.2925 39.7808C22.06 40.0909 20.7695 40.0717 19.5465 39.725C14.1468 38.1943 9.3059 33.5683 4.9689 25.9426C0.626027 18.307 -0.89741 11.7303 0.506427 6.21063C0.822438 4.96921 1.44811 3.83136 2.32313 2.90676C3.19815 1.98216 4.29302 1.30197 5.5022 0.931769ZM6.35117 3.79214C5.62587 4.014 4.96906 4.42172 4.44399 4.97604C3.91893 5.53037 3.54331 6.21261 3.35331 6.95707C2.17299 11.599 3.52389 17.4292 7.51581 24.4498C11.5018 31.4604 15.7937 35.5608 20.3386 36.8507C21.0721 37.0581 21.8461 37.0692 22.5851 36.883C23.3242 36.6967 24.0031 36.3194 24.556 35.7878L26.2951 34.1157C26.726 33.7013 26.9942 33.1421 27.0497 32.5421C27.1053 31.942 26.9444 31.3419 26.597 30.8533L24.0874 27.3201C23.7879 26.8985 23.3659 26.5827 22.8806 26.4171C22.3953 26.2514 21.8712 26.2442 21.3816 26.3965L17.4309 27.6246C15.1369 28.3173 13.0547 26.4443 10.8195 22.513C9.31374 19.8656 8.61182 17.8154 8.78632 16.2209C8.87847 15.3929 9.25688 14.6285 9.85684 14.0592L12.7861 11.2864C13.1606 10.9322 13.4165 10.4677 13.5177 9.95828C13.619 9.44884 13.5606 8.92 13.3507 8.44598L11.5822 4.453C11.3382 3.90243 10.9052 3.46075 10.3642 3.21025C9.82306 2.95976 9.21071 2.91754 8.64123 3.09148L6.35117 3.79214Z" fill="#F73425"/>
</svg>
