<svg width="30" height="21" viewBox="0 0 30 21" fill="none" xmlns="http://www.w3.org/2000/svg">
<path d="M27.8571 0H2.14286C1.57454 0 1.02949 0.221249 0.627628 0.615076C0.225765 1.0089 0 1.54305 0 2.1V18.9C0 19.457 0.225765 19.9911 0.627628 20.3849C1.02949 20.7787 1.57454 21 2.14286 21H27.8571C28.4255 21 28.9705 20.7787 29.3724 20.3849C29.7742 19.9911 30 19.457 30 18.9V2.1C30 1.54305 29.7742 1.0089 29.3724 0.615076C28.9705 0.221249 28.4255 0 27.8571 0ZM25.5 2.1L15 9.219L4.5 2.1H25.5ZM2.14286 18.9V3.0555L14.3893 11.361C14.5686 11.4829 14.7817 11.5483 15 11.5483C15.2183 11.5483 15.4314 11.4829 15.6107 11.361L27.8571 3.0555V18.9H2.14286Z" fill="#F73425"/>
</svg>
