<svg width="30" height="40" viewBox="0 0 30 40" fill="none" xmlns="http://www.w3.org/2000/svg">
<path d="M15.0004 9.40405C13.9087 9.40405 12.8415 9.72494 11.9337 10.3261C11.026 10.9273 10.3184 11.7818 9.90065 12.7815C9.48286 13.7813 9.37355 14.8814 9.58654 15.9427C9.79952 17.004 10.3252 17.9789 11.0972 18.744C11.8692 19.5092 12.8528 20.0303 13.9235 20.2414C14.9943 20.4525 16.1042 20.3442 17.1128 19.9301C18.1215 19.516 18.9836 18.8147 19.5901 17.915C20.1967 17.0152 20.5204 15.9574 20.5204 14.8753C20.5187 13.4247 19.9366 12.0341 18.9018 11.0084C17.867 9.98267 16.4639 9.4057 15.0004 9.40405ZM15.0004 17.6109C14.4546 17.6109 13.9209 17.4505 13.4671 17.1499C13.0132 16.8493 12.6594 16.422 12.4505 15.9222C12.2416 15.4223 12.187 14.8723 12.2935 14.3416C12.4 13.8109 12.6628 13.3235 13.0488 12.9409C13.4348 12.5583 13.9266 12.2978 14.462 12.1922C14.9974 12.0867 15.5523 12.1409 16.0566 12.3479C16.561 12.555 16.992 12.9056 17.2953 13.3555C17.5985 13.8053 17.7604 14.3342 17.7604 14.8753C17.7596 15.6006 17.4685 16.2959 16.9511 16.8087C16.4337 17.3216 15.7322 17.6101 15.0004 17.6109Z" fill="#F73425"/>
<path d="M25.6064 4.3535C22.9838 1.75469 19.483 0.210898 15.7795 0.0200654C12.076 -0.170767 8.43253 1.00489 5.55218 3.32014C2.67183 5.63539 0.758823 8.92609 0.182374 12.5571C-0.394075 16.1882 0.406899 19.9022 2.43071 22.9823L12.8589 38.85C13.0909 39.2031 13.4082 39.4932 13.782 39.694C14.1558 39.8948 14.5742 40 14.9994 40C15.4245 40 15.8429 39.8948 16.2167 39.694C16.5905 39.4932 16.9078 39.2031 17.1399 38.85L27.5684 22.9823C29.4462 20.125 30.2761 16.7148 29.9189 13.3232C29.5617 9.9316 28.0392 6.76476 25.6064 4.3535ZM25.2558 21.4891L14.9994 37.095L4.74288 21.4891C1.6034 16.7121 2.27675 10.3193 6.34393 6.28784C7.48057 5.1612 8.82997 4.26749 10.3151 3.65776C11.8002 3.04802 13.3919 2.7342 14.9994 2.7342C16.6069 2.7342 18.1986 3.04802 19.6837 3.65776C21.1688 4.26749 22.5182 5.1612 23.6549 6.28784C27.722 10.3193 28.3953 16.7121 25.2558 21.4891Z" fill="#F73425"/>
</svg>
