<svg width="14" height="10" viewBox="0 0 14 10" fill="none" xmlns="http://www.w3.org/2000/svg">
<path d="M13.9727 4.84545C13.4238 3.46257 12.4709 2.26664 11.2318 1.40549C9.99266 0.544343 8.52162 0.055715 7.00049 0C5.47935 0.055715 4.00832 0.544343 2.7692 1.40549C1.53007 2.26664 0.577181 3.46257 0.0282905 4.84545C-0.00877914 4.94532 -0.00877914 5.05468 0.0282905 5.15455C0.577181 6.53743 1.53007 7.73336 2.7692 8.59451C4.00832 9.45566 5.47935 9.94429 7.00049 10C8.52162 9.94429 9.99266 9.45566 11.2318 8.59451C12.4709 7.73336 13.4238 6.53743 13.9727 5.15455C14.0098 5.05468 14.0098 4.94532 13.9727 4.84545ZM7.00049 9.09091C4.52708 9.09091 1.91368 7.30455 0.966317 5C1.91368 2.69545 4.52708 0.909091 7.00049 0.909091C9.47389 0.909091 12.0873 2.69545 13.0347 5C12.0873 7.30455 9.47389 9.09091 7.00049 9.09091Z" fill="#F73425"/>
<path d="M7.00028 2.27271C6.44647 2.27271 5.90511 2.43266 5.44463 2.73233C4.98416 3.03201 4.62527 3.45795 4.41334 3.9563C4.20141 4.45464 4.14596 5.003 4.254 5.53204C4.36204 6.06108 4.62872 6.54704 5.02032 6.92845C5.41192 7.30987 5.91085 7.56961 6.45401 7.67485C6.99717 7.78008 7.56017 7.72607 8.07182 7.51965C8.58347 7.31323 9.02078 6.96367 9.32846 6.51517C9.63613 6.06667 9.80035 5.53938 9.80035 4.99998C9.80035 4.27666 9.50535 3.58297 8.98023 3.0715C8.45511 2.56004 7.7429 2.27271 7.00028 2.27271ZM7.00028 6.81816C6.63107 6.81816 6.27016 6.71152 5.96318 6.51174C5.6562 6.31196 5.41694 6.02799 5.27565 5.69577C5.13436 5.36354 5.0974 4.99796 5.16942 4.64527C5.24145 4.29258 5.41924 3.96861 5.68031 3.71433C5.94137 3.46005 6.27399 3.28689 6.6361 3.21673C6.99821 3.14658 7.37354 3.18258 7.71464 3.3202C8.05574 3.45781 8.34728 3.69085 8.5524 3.98985C8.75751 4.28885 8.867 4.64038 8.867 4.99998C8.867 5.48219 8.67032 5.94465 8.32025 6.28563C7.97017 6.6266 7.49536 6.81816 7.00028 6.81816Z" fill="#F73425"/>
</svg>
