<svg width="25" height="15" viewBox="0 0 25 15" fill="none" xmlns="http://www.w3.org/2000/svg">
<path d="M21.9675 11.2478V8.24783H25V5.99876H21.9675V2.99876H19.695V5.99876H16.6637V8.24783H19.695V11.2478H21.9675ZM7.5775 2.91698C8.99609 2.91698 9.95142 3.51673 10.4948 4.02726L12.6509 1.95787C11.3387 0.743495 9.62714 3.42577e-07 7.5775 3.42577e-07C3.39811 -0.00123881 0 3.35936 0 7.49938C0 11.6394 3.39811 15 7.5775 15C11.951 15 14.8545 11.9554 14.8545 7.67286C14.8545 7.04957 14.7744 6.60719 14.6629 6.13631H7.57375V8.93185H11.7456C11.5478 10.1103 10.4798 12.0991 7.5775 12.0991C5.06962 12.0991 3.02374 10.0359 3.02374 7.50929C3.02374 4.97894 5.06962 2.91698 7.5775 2.91698Z" fill="white"/>
</svg>
