<svg width="16" height="16" viewBox="0 0 16 16" fill="none" xmlns="http://www.w3.org/2000/svg">
<path d="M15.1201 11.0044C14.0267 11.0044 12.9689 10.8267 11.9823 10.5067C11.6712 10.4 11.3245 10.48 11.0845 10.72L9.68895 12.4711C7.17339 11.2711 4.81784 9.00444 3.56451 6.4L5.29784 4.92444C5.53784 4.67556 5.60895 4.32889 5.51117 4.01778C5.18228 3.03111 5.01339 1.97333 5.01339 0.88C5.01339 0.4 4.61339 0 4.13339 0H1.05784C0.577839 0 6.10352e-05 0.213333 6.10352e-05 0.88C6.10352e-05 9.13778 6.87117 16 15.1201 16C15.7512 16 16.0001 15.44 16.0001 14.9511V11.8844C16.0001 11.4044 15.6001 11.0044 15.1201 11.0044Z" fill="#F73425"/>
</svg>
