<svg width="200" height="166" viewBox="0 0 200 166" fill="none" xmlns="http://www.w3.org/2000/svg">
<path opacity="0.05" d="M181.25 83H150V59.2857C150 46.2058 161.211 35.5714 175 35.5714H178.125C183.32 35.5714 187.5 31.6067 187.5 26.6786V8.89286C187.5 3.96473 183.32 0 178.125 0H175C140.469 0 112.5 26.5304 112.5 59.2857V148.214C112.5 158.033 120.898 166 131.25 166H181.25C191.602 166 200 158.033 200 148.214V100.786C200 90.9665 191.602 83 181.25 83ZM68.75 83H37.5V59.2857C37.5 46.2058 48.7109 35.5714 62.5 35.5714H65.625C70.8203 35.5714 75 31.6067 75 26.6786V8.89286C75 3.96473 70.8203 0 65.625 0H62.5C27.9688 0 0 26.5304 0 59.2857V148.214C0 158.033 8.39844 166 18.75 166H68.75C79.1016 166 87.5 158.033 87.5 148.214V100.786C87.5 90.9665 79.1016 83 68.75 83Z" fill="#000C23"/>
</svg>
